<?xml version="1.0" encoding="UTF-8" standalone="no"?>
<svg
   xmlns:dc="http://purl.org/dc/elements/1.1/"
   xmlns:cc="http://creativecommons.org/ns#"
   xmlns:rdf="http://www.w3.org/1999/02/22-rdf-syntax-ns#"
   xmlns:svg="http://www.w3.org/2000/svg"
   xmlns="http://www.w3.org/2000/svg"
   xmlns:sodipodi="http://sodipodi.sourceforge.net/DTD/sodipodi-0.dtd"
   xmlns:inkscape="http://www.inkscape.org/namespaces/inkscape"
   width="271mm"
   height="107mm"
   viewBox="0 0 27100 10700"
   version="1.1"
   stroke-width="28.222"
   stroke-linejoin="round"
   xml:space="preserve"
   id="svg494"
   sodipodi:docname="500_vs_1_vs_ideal.svg"
   inkscape:version="0.92.3 (2405546, 2018-03-11)"><metadata
   id="metadata500"><rdf:RDF><cc:Work
       rdf:about=""><dc:format>image/svg+xml</dc:format><dc:type
         rdf:resource="http://purl.org/dc/dcmitype/StillImage" /></cc:Work></rdf:RDF></metadata><defs
   id="defs498" /><sodipodi:namedview
   pagecolor="#ffffff"
   bordercolor="#666666"
   borderopacity="1"
   objecttolerance="10"
   gridtolerance="10"
   guidetolerance="10"
   inkscape:pageopacity="0"
   inkscape:pageshadow="2"
   inkscape:window-width="640"
   inkscape:window-height="480"
   id="namedview496"
   showgrid="false"
   inkscape:zoom="0.40517374"
   inkscape:cx="512.12598"
   inkscape:cy="202.20472"
   inkscape:window-x="0"
   inkscape:window-y="27"
   inkscape:window-maximized="0"
   inkscape:current-layer="svg494" />
 <path
   fill="rgb(255,255,255)"
   stroke="none"
   d="M 13573,10676 L 0,10676 0,0 27146,0 27146,10676 13573,10676 Z"
   id="path2" />
 <path
   fill="none"
   stroke="rgb(179,179,179)"
   stroke-linejoin="round"
   d="M 12129,8966 L 2122,8966 2122,373 22136,373 22136,8966 12129,8966 Z"
   id="path4" />
 <path
   fill="none"
   stroke="rgb(179,179,179)"
   stroke-linejoin="round"
   d="M 22136,8965 L 2122,8965"
   id="path6" />
 <path
   fill="none"
   stroke="rgb(179,179,179)"
   stroke-linejoin="round"
   d="M 22136,7246 L 2122,7246"
   id="path8" />
 <path
   fill="none"
   stroke="rgb(179,179,179)"
   stroke-linejoin="round"
   d="M 22136,5527 L 2122,5527"
   id="path10" />
 <path
   fill="none"
   stroke="rgb(179,179,179)"
   stroke-linejoin="round"
   d="M 22136,3809 L 2122,3809"
   id="path12" />
 <path
   fill="none"
   stroke="rgb(179,179,179)"
   stroke-linejoin="round"
   d="M 22136,2090 L 2122,2090"
   id="path14" />
 <path
   fill="none"
   stroke="rgb(179,179,179)"
   stroke-linejoin="round"
   d="M 22136,371 L 2122,371"
   id="path16" />
 <path
   fill="none"
   stroke="rgb(179,179,179)"
   stroke-linejoin="round"
   d="M 2122,9115 L 2122,8965"
   id="path18" />
 <path
   fill="none"
   stroke="rgb(179,179,179)"
   stroke-linejoin="round"
   d="M 2122,9115 L 2122,8965"
   id="path20" />
 <path
   fill="none"
   stroke="rgb(179,179,179)"
   stroke-linejoin="round"
   d="M 3661,9115 L 3661,8965"
   id="path22" />
 <path
   fill="none"
   stroke="rgb(179,179,179)"
   stroke-linejoin="round"
   d="M 3661,9115 L 3661,8965"
   id="path24" />
 <path
   fill="none"
   stroke="rgb(179,179,179)"
   stroke-linejoin="round"
   d="M 5201,9115 L 5201,8965"
   id="path26" />
 <path
   fill="none"
   stroke="rgb(179,179,179)"
   stroke-linejoin="round"
   d="M 5201,9115 L 5201,8965"
   id="path28" />
 <path
   fill="none"
   stroke="rgb(179,179,179)"
   stroke-linejoin="round"
   d="M 6740,9115 L 6740,8965"
   id="path30" />
 <path
   fill="none"
   stroke="rgb(179,179,179)"
   stroke-linejoin="round"
   d="M 6740,9115 L 6740,8965"
   id="path32" />
 <path
   fill="none"
   stroke="rgb(179,179,179)"
   stroke-linejoin="round"
   d="M 8280,9115 L 8280,8965"
   id="path34" />
 <path
   fill="none"
   stroke="rgb(179,179,179)"
   stroke-linejoin="round"
   d="M 8280,9115 L 8280,8965"
   id="path36" />
 <path
   fill="none"
   stroke="rgb(179,179,179)"
   stroke-linejoin="round"
   d="M 9820,9115 L 9820,8965"
   id="path38" />
 <path
   fill="none"
   stroke="rgb(179,179,179)"
   stroke-linejoin="round"
   d="M 9820,9115 L 9820,8965"
   id="path40" />
 <path
   fill="none"
   stroke="rgb(179,179,179)"
   stroke-linejoin="round"
   d="M 11359,9115 L 11359,8965"
   id="path42" />
 <path
   fill="none"
   stroke="rgb(179,179,179)"
   stroke-linejoin="round"
   d="M 11359,9115 L 11359,8965"
   id="path44" />
 <path
   fill="none"
   stroke="rgb(179,179,179)"
   stroke-linejoin="round"
   d="M 12899,9115 L 12899,8965"
   id="path46" />
 <path
   fill="none"
   stroke="rgb(179,179,179)"
   stroke-linejoin="round"
   d="M 12899,9115 L 12899,8965"
   id="path48" />
 <path
   fill="none"
   stroke="rgb(179,179,179)"
   stroke-linejoin="round"
   d="M 14437,9115 L 14437,8965"
   id="path50" />
 <path
   fill="none"
   stroke="rgb(179,179,179)"
   stroke-linejoin="round"
   d="M 14437,9115 L 14437,8965"
   id="path52" />
 <path
   fill="none"
   stroke="rgb(179,179,179)"
   stroke-linejoin="round"
   d="M 15977,9115 L 15977,8965"
   id="path54" />
 <path
   fill="none"
   stroke="rgb(179,179,179)"
   stroke-linejoin="round"
   d="M 15977,9115 L 15977,8965"
   id="path56" />
 <path
   fill="none"
   stroke="rgb(179,179,179)"
   stroke-linejoin="round"
   d="M 17517,9115 L 17517,8965"
   id="path58" />
 <path
   fill="none"
   stroke="rgb(179,179,179)"
   stroke-linejoin="round"
   d="M 17517,9115 L 17517,8965"
   id="path60" />
 <path
   fill="none"
   stroke="rgb(179,179,179)"
   stroke-linejoin="round"
   d="M 19056,9115 L 19056,8965"
   id="path62" />
 <path
   fill="none"
   stroke="rgb(179,179,179)"
   stroke-linejoin="round"
   d="M 19056,9115 L 19056,8965"
   id="path64" />
 <path
   fill="none"
   stroke="rgb(179,179,179)"
   stroke-linejoin="round"
   d="M 20596,9115 L 20596,8965"
   id="path66" />
 <path
   fill="none"
   stroke="rgb(179,179,179)"
   stroke-linejoin="round"
   d="M 20596,9115 L 20596,8965"
   id="path68" />
 <path
   fill="none"
   stroke="rgb(179,179,179)"
   stroke-linejoin="round"
   d="M 22136,9115 L 22136,8965"
   id="path70" />
 <path
   fill="none"
   stroke="rgb(179,179,179)"
   stroke-linejoin="round"
   d="M 22136,9115 L 22136,8965"
   id="path72" />
 <path
   fill="none"
   stroke="rgb(179,179,179)"
   stroke-linejoin="round"
   d="M 2122,8965 L 22136,8965"
   id="path74" />
 <path
   fill="none"
   stroke="rgb(179,179,179)"
   stroke-linejoin="round"
   d="M 1972,8965 L 2122,8965"
   id="path76" />
 <path
   fill="none"
   stroke="rgb(179,179,179)"
   stroke-linejoin="round"
   d="M 1972,8965 L 2122,8965"
   id="path78" />
 <path
   fill="none"
   stroke="rgb(179,179,179)"
   stroke-linejoin="round"
   d="M 1972,7246 L 2122,7246"
   id="path80" />
 <path
   fill="none"
   stroke="rgb(179,179,179)"
   stroke-linejoin="round"
   d="M 1972,7246 L 2122,7246"
   id="path82" />
 <path
   fill="none"
   stroke="rgb(179,179,179)"
   stroke-linejoin="round"
   d="M 1972,5527 L 2122,5527"
   id="path84" />
 <path
   fill="none"
   stroke="rgb(179,179,179)"
   stroke-linejoin="round"
   d="M 1972,5527 L 2122,5527"
   id="path86" />
 <path
   fill="none"
   stroke="rgb(179,179,179)"
   stroke-linejoin="round"
   d="M 1972,3809 L 2122,3809"
   id="path88" />
 <path
   fill="none"
   stroke="rgb(179,179,179)"
   stroke-linejoin="round"
   d="M 1972,3809 L 2122,3809"
   id="path90" />
 <path
   fill="none"
   stroke="rgb(179,179,179)"
   stroke-linejoin="round"
   d="M 1972,2090 L 2122,2090"
   id="path92" />
 <path
   fill="none"
   stroke="rgb(179,179,179)"
   stroke-linejoin="round"
   d="M 1972,2090 L 2122,2090"
   id="path94" />
 <path
   fill="none"
   stroke="rgb(179,179,179)"
   stroke-linejoin="round"
   d="M 1972,371 L 2122,371"
   id="path96" />
 <path
   fill="none"
   stroke="rgb(179,179,179)"
   stroke-linejoin="round"
   d="M 1972,371 L 2122,371"
   id="path98" />
 <path
   fill="none"
   stroke="rgb(179,179,179)"
   stroke-linejoin="round"
   d="M 2122,8965 L 2122,371"
   id="path100" />
 <path
   fill="none"
   stroke="rgb(237,28,36)"
   stroke-width="80"
   stroke-linejoin="round"
   d="M 2122,8961 L 3661,8909 5201,8638 6740,7765 8280,5963 9820,3565 11359,1764 12899,1764 14437,3565 15977,5963 17517,7765 19056,8638 20596,8909 22136,8961"
   id="path102" />
 <path
   fill="rgb(237,28,36)"
   stroke="none"
   d="M 1997,8836 L 1997,9086 2247,9086 2247,8836 1997,8836 Z"
   id="path104" />
 <path
   fill="none"
   stroke="rgb(237,28,36)"
   stroke-linejoin="round"
   d="M 1997,8836 L 1997,9086 2247,9086 2247,8836 1997,8836 Z"
   id="path106" />
 <path
   fill="rgb(237,28,36)"
   stroke="none"
   d="M 3536,8784 L 3536,9034 3786,9034 3786,8784 3536,8784 Z"
   id="path108" />
 <path
   fill="none"
   stroke="rgb(237,28,36)"
   stroke-linejoin="round"
   d="M 3536,8784 L 3536,9034 3786,9034 3786,8784 3536,8784 Z"
   id="path110" />
 <path
   fill="rgb(237,28,36)"
   stroke="none"
   d="M 5076,8513 L 5076,8763 5326,8763 5326,8513 5076,8513 Z"
   id="path112" />
 <path
   fill="none"
   stroke="rgb(237,28,36)"
   stroke-linejoin="round"
   d="M 5076,8513 L 5076,8763 5326,8763 5326,8513 5076,8513 Z"
   id="path114" />
 <path
   fill="rgb(237,28,36)"
   stroke="none"
   d="M 6615,7640 L 6615,7890 6865,7890 6865,7640 6615,7640 Z"
   id="path116" />
 <path
   fill="none"
   stroke="rgb(237,28,36)"
   stroke-linejoin="round"
   d="M 6615,7640 L 6615,7890 6865,7890 6865,7640 6615,7640 Z"
   id="path118" />
 <path
   fill="rgb(237,28,36)"
   stroke="none"
   d="M 8155,5838 L 8155,6088 8405,6088 8405,5838 8155,5838 Z"
   id="path120" />
 <path
   fill="none"
   stroke="rgb(237,28,36)"
   stroke-linejoin="round"
   d="M 8155,5838 L 8155,6088 8405,6088 8405,5838 8155,5838 Z"
   id="path122" />
 <path
   fill="rgb(237,28,36)"
   stroke="none"
   d="M 9695,3440 L 9695,3690 9945,3690 9945,3440 9695,3440 Z"
   id="path124" />
 <path
   fill="none"
   stroke="rgb(237,28,36)"
   stroke-linejoin="round"
   d="M 9695,3440 L 9695,3690 9945,3690 9945,3440 9695,3440 Z"
   id="path126" />
 <path
   fill="rgb(237,28,36)"
   stroke="none"
   d="M 11234,1639 L 11234,1889 11484,1889 11484,1639 11234,1639 Z"
   id="path128" />
 <path
   fill="none"
   stroke="rgb(237,28,36)"
   stroke-linejoin="round"
   d="M 11234,1639 L 11234,1889 11484,1889 11484,1639 11234,1639 Z"
   id="path130" />
 <path
   fill="rgb(237,28,36)"
   stroke="none"
   d="M 12774,1639 L 12774,1889 13024,1889 13024,1639 12774,1639 Z"
   id="path132" />
 <path
   fill="none"
   stroke="rgb(237,28,36)"
   stroke-linejoin="round"
   d="M 12774,1639 L 12774,1889 13024,1889 13024,1639 12774,1639 Z"
   id="path134" />
 <path
   fill="rgb(237,28,36)"
   stroke="none"
   d="M 14312,3440 L 14312,3690 14562,3690 14562,3440 14312,3440 Z"
   id="path136" />
 <path
   fill="none"
   stroke="rgb(237,28,36)"
   stroke-linejoin="round"
   d="M 14312,3440 L 14312,3690 14562,3690 14562,3440 14312,3440 Z"
   id="path138" />
 <path
   fill="rgb(237,28,36)"
   stroke="none"
   d="M 15852,5838 L 15852,6088 16102,6088 16102,5838 15852,5838 Z"
   id="path140" />
 <path
   fill="none"
   stroke="rgb(237,28,36)"
   stroke-linejoin="round"
   d="M 15852,5838 L 15852,6088 16102,6088 16102,5838 15852,5838 Z"
   id="path142" />
 <path
   fill="rgb(237,28,36)"
   stroke="none"
   d="M 17392,7640 L 17392,7890 17642,7890 17642,7640 17392,7640 Z"
   id="path144" />
 <path
   fill="none"
   stroke="rgb(237,28,36)"
   stroke-linejoin="round"
   d="M 17392,7640 L 17392,7890 17642,7890 17642,7640 17392,7640 Z"
   id="path146" />
 <path
   fill="rgb(237,28,36)"
   stroke="none"
   d="M 18931,8513 L 18931,8763 19181,8763 19181,8513 18931,8513 Z"
   id="path148" />
 <path
   fill="none"
   stroke="rgb(237,28,36)"
   stroke-linejoin="round"
   d="M 18931,8513 L 18931,8763 19181,8763 19181,8513 18931,8513 Z"
   id="path150" />
 <path
   fill="rgb(237,28,36)"
   stroke="none"
   d="M 20471,8784 L 20471,9034 20721,9034 20721,8784 20471,8784 Z"
   id="path152" />
 <path
   fill="none"
   stroke="rgb(237,28,36)"
   stroke-linejoin="round"
   d="M 20471,8784 L 20471,9034 20721,9034 20721,8784 20471,8784 Z"
   id="path154" />
 <path
   fill="rgb(237,28,36)"
   stroke="none"
   d="M 22011,8836 L 22011,9086 22261,9086 22261,8836 22011,8836 Z"
   id="path156" />
 <path
   fill="none"
   stroke="rgb(237,28,36)"
   stroke-linejoin="round"
   d="M 22011,8836 L 22011,9086 22261,9086 22261,8836 22011,8836 Z"
   id="path158" />
 <path
   fill="none"
   stroke="rgb(137,199,101)"
   stroke-width="80"
   stroke-linejoin="round"
   d="M 2122,8071 L 3661,7796 5201,7521 6740,6627 8280,3878 9820,3947 11359,4153 12899,3672 14437,4084 15977,6558 17517,8346 19056,8621 20596,8896 22136,8965"
   id="path160" />
 <path
   fill="rgb(137,199,101)"
   stroke="none"
   d="M 1997,8071 L 2122,8196 2247,8071 2122,7946 1997,8071 Z"
   id="path162" />
 <path
   fill="none"
   stroke="rgb(137,199,101)"
   stroke-linejoin="round"
   d="M 1997,8071 L 2122,8196 2247,8071 2122,7946 1997,8071 Z"
   id="path164" />
 <path
   fill="rgb(137,199,101)"
   stroke="none"
   d="M 3536,7796 L 3661,7921 3786,7796 3661,7671 3536,7796 Z"
   id="path166" />
 <path
   fill="none"
   stroke="rgb(137,199,101)"
   stroke-linejoin="round"
   d="M 3536,7796 L 3661,7921 3786,7796 3661,7671 3536,7796 Z"
   id="path168" />
 <path
   fill="rgb(137,199,101)"
   stroke="none"
   d="M 5076,7521 L 5201,7646 5326,7521 5201,7396 5076,7521 Z"
   id="path170" />
 <path
   fill="none"
   stroke="rgb(137,199,101)"
   stroke-linejoin="round"
   d="M 5076,7521 L 5201,7646 5326,7521 5201,7396 5076,7521 Z"
   id="path172" />
 <path
   fill="rgb(137,199,101)"
   stroke="none"
   d="M 6615,6627 L 6740,6752 6865,6627 6740,6502 6615,6627 Z"
   id="path174" />
 <path
   fill="none"
   stroke="rgb(137,199,101)"
   stroke-linejoin="round"
   d="M 6615,6627 L 6740,6752 6865,6627 6740,6502 6615,6627 Z"
   id="path176" />
 <path
   fill="rgb(137,199,101)"
   stroke="none"
   d="M 8155,3878 L 8280,4003 8405,3878 8280,3753 8155,3878 Z"
   id="path178" />
 <path
   fill="none"
   stroke="rgb(137,199,101)"
   stroke-linejoin="round"
   d="M 8155,3878 L 8280,4003 8405,3878 8280,3753 8155,3878 Z"
   id="path180" />
 <path
   fill="rgb(137,199,101)"
   stroke="none"
   d="M 9695,3947 L 9820,4072 9945,3947 9820,3822 9695,3947 Z"
   id="path182" />
 <path
   fill="none"
   stroke="rgb(137,199,101)"
   stroke-linejoin="round"
   d="M 9695,3947 L 9820,4072 9945,3947 9820,3822 9695,3947 Z"
   id="path184" />
 <path
   fill="rgb(137,199,101)"
   stroke="none"
   d="M 11234,4153 L 11359,4278 11484,4153 11359,4028 11234,4153 Z"
   id="path186" />
 <path
   fill="none"
   stroke="rgb(137,199,101)"
   stroke-linejoin="round"
   d="M 11234,4153 L 11359,4278 11484,4153 11359,4028 11234,4153 Z"
   id="path188" />
 <path
   fill="rgb(137,199,101)"
   stroke="none"
   d="M 12774,3672 L 12899,3797 13024,3672 12899,3547 12774,3672 Z"
   id="path190" />
 <path
   fill="none"
   stroke="rgb(137,199,101)"
   stroke-linejoin="round"
   d="M 12774,3672 L 12899,3797 13024,3672 12899,3547 12774,3672 Z"
   id="path192" />
 <path
   fill="rgb(137,199,101)"
   stroke="none"
   d="M 14312,4084 L 14437,4209 14562,4084 14437,3959 14312,4084 Z"
   id="path194" />
 <path
   fill="none"
   stroke="rgb(137,199,101)"
   stroke-linejoin="round"
   d="M 14312,4084 L 14437,4209 14562,4084 14437,3959 14312,4084 Z"
   id="path196" />
 <path
   fill="rgb(137,199,101)"
   stroke="none"
   d="M 15852,6558 L 15977,6683 16102,6558 15977,6433 15852,6558 Z"
   id="path198" />
 <path
   fill="none"
   stroke="rgb(137,199,101)"
   stroke-linejoin="round"
   d="M 15852,6558 L 15977,6683 16102,6558 15977,6433 15852,6558 Z"
   id="path200" />
 <path
   fill="rgb(137,199,101)"
   stroke="none"
   d="M 17392,8346 L 17517,8471 17642,8346 17517,8221 17392,8346 Z"
   id="path202" />
 <path
   fill="none"
   stroke="rgb(137,199,101)"
   stroke-linejoin="round"
   d="M 17392,8346 L 17517,8471 17642,8346 17517,8221 17392,8346 Z"
   id="path204" />
 <path
   fill="rgb(137,199,101)"
   stroke="none"
   d="M 18931,8621 L 19056,8746 19181,8621 19056,8496 18931,8621 Z"
   id="path206" />
 <path
   fill="none"
   stroke="rgb(137,199,101)"
   stroke-linejoin="round"
   d="M 18931,8621 L 19056,8746 19181,8621 19056,8496 18931,8621 Z"
   id="path208" />
 <path
   fill="rgb(137,199,101)"
   stroke="none"
   d="M 20471,8896 L 20596,9021 20721,8896 20596,8771 20471,8896 Z"
   id="path210" />
 <path
   fill="none"
   stroke="rgb(137,199,101)"
   stroke-linejoin="round"
   d="M 20471,8896 L 20596,9021 20721,8896 20596,8771 20471,8896 Z"
   id="path212" />
 <path
   fill="rgb(137,199,101)"
   stroke="none"
   d="M 22011,8965 L 22136,9090 22261,8965 22136,8840 22011,8965 Z"
   id="path214" />
 <path
   fill="none"
   stroke="rgb(137,199,101)"
   stroke-linejoin="round"
   d="M 22011,8965 L 22136,9090 22261,8965 22136,8840 22011,8965 Z"
   id="path216" />
 <path
   fill="none"
   stroke="rgb(135,209,209)"
   stroke-width="80"
   stroke-linejoin="round"
   d="M 2122,8965 L 3661,7589 5201,6902 6740,4840 8280,4153 9820,1403 11359,6214 12899,3465 14437,4840 15977,6902 17517,8965 19056,8965 20596,8965 22136,8965"
   id="path218" />
 <path
   fill="rgb(135,209,209)"
   stroke="none"
   d="M 1997,8840 L 2122,9090 2247,8840 1997,8840 Z"
   id="path220" />
 <path
   fill="none"
   stroke="rgb(135,209,209)"
   stroke-linejoin="round"
   d="M 1997,8840 L 2122,9090 2247,8840 1997,8840 Z"
   id="path222" />
 <path
   fill="rgb(135,209,209)"
   stroke="none"
   d="M 3536,7464 L 3661,7714 3786,7464 3536,7464 Z"
   id="path224" />
 <path
   fill="none"
   stroke="rgb(135,209,209)"
   stroke-linejoin="round"
   d="M 3536,7464 L 3661,7714 3786,7464 3536,7464 Z"
   id="path226" />
 <path
   fill="rgb(135,209,209)"
   stroke="none"
   d="M 5076,6777 L 5201,7027 5326,6777 5076,6777 Z"
   id="path228" />
 <path
   fill="none"
   stroke="rgb(135,209,209)"
   stroke-linejoin="round"
   d="M 5076,6777 L 5201,7027 5326,6777 5076,6777 Z"
   id="path230" />
 <path
   fill="rgb(135,209,209)"
   stroke="none"
   d="M 6615,4715 L 6740,4965 6865,4715 6615,4715 Z"
   id="path232" />
 <path
   fill="none"
   stroke="rgb(135,209,209)"
   stroke-linejoin="round"
   d="M 6615,4715 L 6740,4965 6865,4715 6615,4715 Z"
   id="path234" />
 <path
   fill="rgb(135,209,209)"
   stroke="none"
   d="M 8155,4028 L 8280,4278 8405,4028 8155,4028 Z"
   id="path236" />
 <path
   fill="none"
   stroke="rgb(135,209,209)"
   stroke-linejoin="round"
   d="M 8155,4028 L 8280,4278 8405,4028 8155,4028 Z"
   id="path238" />
 <path
   fill="rgb(135,209,209)"
   stroke="none"
   d="M 9695,1278 L 9820,1528 9945,1278 9695,1278 Z"
   id="path240" />
 <path
   fill="none"
   stroke="rgb(135,209,209)"
   stroke-linejoin="round"
   d="M 9695,1278 L 9820,1528 9945,1278 9695,1278 Z"
   id="path242" />
 <path
   fill="rgb(135,209,209)"
   stroke="none"
   d="M 11234,6089 L 11359,6339 11484,6089 11234,6089 Z"
   id="path244" />
 <path
   fill="none"
   stroke="rgb(135,209,209)"
   stroke-linejoin="round"
   d="M 11234,6089 L 11359,6339 11484,6089 11234,6089 Z"
   id="path246" />
 <path
   fill="rgb(135,209,209)"
   stroke="none"
   d="M 12774,3340 L 12899,3590 13024,3340 12774,3340 Z"
   id="path248" />
 <path
   fill="none"
   stroke="rgb(135,209,209)"
   stroke-linejoin="round"
   d="M 12774,3340 L 12899,3590 13024,3340 12774,3340 Z"
   id="path250" />
 <path
   fill="rgb(135,209,209)"
   stroke="none"
   d="M 14312,4715 L 14437,4965 14562,4715 14312,4715 Z"
   id="path252" />
 <path
   fill="none"
   stroke="rgb(135,209,209)"
   stroke-linejoin="round"
   d="M 14312,4715 L 14437,4965 14562,4715 14312,4715 Z"
   id="path254" />
 <path
   fill="rgb(135,209,209)"
   stroke="none"
   d="M 15852,6777 L 15977,7027 16102,6777 15852,6777 Z"
   id="path256" />
 <path
   fill="none"
   stroke="rgb(135,209,209)"
   stroke-linejoin="round"
   d="M 15852,6777 L 15977,7027 16102,6777 15852,6777 Z"
   id="path258" />
 <path
   fill="rgb(135,209,209)"
   stroke="none"
   d="M 17392,8840 L 17517,9090 17642,8840 17392,8840 Z"
   id="path260" />
 <path
   fill="none"
   stroke="rgb(135,209,209)"
   stroke-linejoin="round"
   d="M 17392,8840 L 17517,9090 17642,8840 17392,8840 Z"
   id="path262" />
 <path
   fill="rgb(135,209,209)"
   stroke="none"
   d="M 18931,8840 L 19056,9090 19181,8840 18931,8840 Z"
   id="path264" />
 <path
   fill="none"
   stroke="rgb(135,209,209)"
   stroke-linejoin="round"
   d="M 18931,8840 L 19056,9090 19181,8840 18931,8840 Z"
   id="path266" />
 <path
   fill="rgb(135,209,209)"
   stroke="none"
   d="M 20471,8840 L 20596,9090 20721,8840 20471,8840 Z"
   id="path268" />
 <path
   fill="none"
   stroke="rgb(135,209,209)"
   stroke-linejoin="round"
   d="M 20471,8840 L 20596,9090 20721,8840 20471,8840 Z"
   id="path270" />
 <path
   fill="rgb(135,209,209)"
   stroke="none"
   d="M 22011,8840 L 22136,9090 22261,8840 22011,8840 Z"
   id="path272" />
 <path
   fill="none"
   stroke="rgb(135,209,209)"
   stroke-linejoin="round"
   d="M 22011,8840 L 22136,9090 22261,8840 22011,8840 Z"
   id="path274" />
 <g
   aria-label="1"
   style=""
   id="text282"><path
     d="m 2055.8887,9453 v -26.3716 h 61.8784 v -186.8418 l -54.8115,39.1265 v -29.3018 l 57.3969,-39.4712 h 28.6123 v 216.4883 h 59.1206 V 9453 Z"
     style="fill:#000000;stroke:none"
     id="path502" /></g>
 <g
   aria-label="2"
   style=""
   id="text290"><path
     d="m 3585.7534,9453 v -21.8901 q 8.7905,-20.1665 21.3731,-35.5069 12.7548,-15.5127 26.7163,-27.9228 13.9614,-12.5825 27.5781,-23.2691 13.7891,-10.6865 24.8203,-21.373 11.0313,-10.6865 17.7534,-22.4072 6.8946,-11.7207 6.8946,-26.544 0,-19.9941 -11.7207,-31.0254 -11.7207,-11.0312 -32.5767,-11.0312 -19.8218,0 -32.749,10.8589 -12.7549,10.6865 -14.9956,30.1635 l -31.7149,-2.9301 q 3.4473,-29.1294 24.648,-46.3658 21.373,-17.2363 54.8115,-17.2363 36.7134,0 56.3628,17.4087 19.8218,17.2363 19.8218,49.1235 0,14.1338 -6.5498,28.0952 -6.3775,13.9615 -19.1324,27.9229 -12.7548,13.9614 -48.7788,43.2632 -19.8217,16.2021 -31.5425,29.3017 -11.7207,12.9273 -16.8916,24.9927 h 126.6871 V 9453 Z"
     style="fill:#000000;stroke:none"
     id="path505" /></g>
 <g
   aria-label="3"
   style=""
   id="text298"><path
     d="m 5288.8091,9385.9507 q 0,33.6108 -21.3731,52.0537 -21.373,18.4429 -61.0166,18.4429 -36.8857,0 -58.9482,-16.5469 -21.8901,-16.7192 -26.0269,-49.2959 l 32.0596,-2.9302 q 6.2051,43.0908 52.9155,43.0908 23.4414,0 36.7134,-11.5483 13.4443,-11.5483 13.4443,-34.3003 0,-19.8218 -15.3403,-30.853 -15.168,-11.2036 -43.9526,-11.2036 h -17.5811 v -26.8887 h 16.8916 q 25.5098,0 39.4712,-11.0313 14.1338,-11.2036 14.1338,-30.853 0,-19.477 -11.5483,-30.6806 -11.376,-11.376 -33.9556,-11.376 -20.5112,0 -33.2661,10.5141 -12.5825,10.5142 -14.6509,29.6465 l -31.1977,-2.4131 q 3.4472,-29.8188 24.6479,-46.5381 21.3731,-16.7192 54.8115,-16.7192 36.541,0 56.7075,17.064 20.3389,16.8916 20.3389,47.2275 0,23.2691 -13.0996,37.9199 -12.9272,14.4785 -37.7476,19.6494 v 0.6895 q 27.2334,2.9302 42.4014,18.2705 15.168,15.3403 15.168,38.6094 z"
     style="fill:#000000;stroke:none"
     id="path508" /></g>
 <g
   aria-label="4"
   style=""
   id="text306"><path
     d="M 6798.8521,9398.0161 V 9453 h -29.3018 v -54.9839 h -114.4492 v -24.1308 l 111.1743,-163.7452 h 32.5767 v 163.4004 h 34.1279 v 24.4756 z m -29.3018,-152.8862 q -0.3447,1.0342 -4.8262,9.1352 -4.4814,8.1011 -6.7221,11.376 l -62.2232,91.6973 -9.3076,12.7549 -2.7578,3.4472 h 85.8369 z"
     style="fill:#000000;stroke:none"
     id="path511" /></g>
 <g
   aria-label="5"
   style=""
   id="text314"><path
     d="m 8368.4985,9373.8853 q 0,38.437 -22.9243,60.4995 -22.7519,22.0625 -63.2573,22.0625 -33.9556,0 -54.8115,-14.8233 -20.856,-14.8232 -26.3716,-42.9184 l 31.3701,-3.6197 q 9.8247,36.024 50.5024,36.024 24.9927,0 39.1265,-14.9956 14.1338,-15.168 14.1338,-41.5396 0,-22.9243 -14.3062,-37.0581 -14.1337,-14.1338 -38.2646,-14.1338 -12.5825,0 -23.4414,3.9644 -10.8589,3.9643 -21.7178,13.4443 h -30.3359 l 8.1011,-130.6514 h 138.0629 v 26.3716 h -109.7954 l -4.6538,77.0464 q 20.1665,-15.5127 50.1577,-15.5127 35.8516,0 57.0523,21.0283 21.373,21.0284 21.373,54.8116 z"
     style="fill:#000000;stroke:none"
     id="path514" /></g>
 <g
   aria-label="6"
   style=""
   id="text322"><path
     d="m 9907.8091,9373.5405 q 0,38.437 -20.856,60.6719 -20.8559,22.2349 -57.5693,22.2349 -41.0225,0 -62.7402,-30.5083 -21.7178,-30.5083 -21.7178,-88.7671 0,-63.085 22.5796,-96.8682 22.5796,-33.7832 64.2915,-33.7832 54.9839,0 69.29,49.4683 l -29.6465,5.3432 q -9.1352,-29.6465 -39.9883,-29.6465 -26.5439,0 -41.1948,24.8204 -14.4785,24.6479 -14.4785,71.5307 8.4458,-15.685 23.7861,-23.7861 15.3404,-8.2734 35.1622,-8.2734 33.6108,0 53.2602,21.0283 19.8218,21.0283 19.8218,56.5351 z m -31.5425,1.3789 q 0,-26.3715 -12.9272,-40.6777 -12.9273,-14.3062 -36.024,-14.3062 -21.7177,0 -35.1621,12.7549 -13.272,12.5825 -13.272,34.8174 0,28.0952 13.7891,46.021 13.9614,17.9258 35.6792,17.9258 22.4072,0 35.1621,-14.9956 12.7549,-15.168 12.7549,-41.5396 z"
     style="fill:#000000;stroke:none"
     id="path517" /></g>
 <g
   aria-label="7"
   style=""
   id="text330"><path
     d="m 11444.568,9235.3052 q -37.23,56.8799 -52.57,89.1118 -15.341,32.2319 -23.097,63.602 -7.584,31.3702 -7.584,64.981 h -32.404 q 0,-46.5381 19.649,-97.9023 19.822,-51.5367 66.015,-118.586 h -130.479 v -26.3716 h 160.47 z"
     style="fill:#000000;stroke:none"
     id="path520" /></g>
 <g
   aria-label="8"
   style=""
   id="text338"><path
     d="m 12986.981,9385.2612 q 0,33.6109 -21.373,52.3985 -21.373,18.7876 -61.361,18.7876 -38.954,0 -61.017,-18.4429 -21.89,-18.4429 -21.89,-52.3984 0,-23.7862 13.617,-39.9883 13.617,-16.2022 34.817,-19.6494 v -0.6895 q -19.821,-4.6538 -31.37,-20.1665 -11.376,-15.5127 -11.376,-36.3686 0,-27.7505 20.684,-44.9869 20.856,-17.2363 55.846,-17.2363 35.851,0 56.535,16.8916 20.856,16.8916 20.856,45.6763 0,20.8559 -11.549,36.3686 -11.548,15.5127 -31.542,19.4771 v 0.6894 q 23.269,3.792 36.196,19.8218 12.927,15.8574 12.927,39.8159 z m -38.264,-114.4492 q 0,-41.1948 -45.159,-41.1948 -21.891,0 -33.439,10.3418 -11.376,10.3418 -11.376,30.853 0,20.856 11.721,31.8872 11.893,10.8589 33.438,10.8589 21.89,0 33.266,-9.9971 11.549,-10.1694 11.549,-32.749 z m 6.033,111.5191 q 0,-22.5796 -13.445,-33.9556 -13.444,-11.5484 -37.747,-11.5484 -23.614,0 -36.886,12.4102 -13.272,12.2378 -13.272,33.7832 0,50.1577 51.192,50.1577 25.337,0 37.747,-12.0654 12.411,-12.2378 12.411,-38.7817 z"
     style="fill:#000000;stroke:none"
     id="path523" /></g>
 <g
   aria-label="9"
   style=""
   id="text346"><path
     d="m 14524.603,9326.6577 q 0,62.5679 -22.925,96.1787 -22.752,33.6109 -64.981,33.6109 -28.44,0 -45.676,-11.8931 -17.064,-12.0654 -24.476,-38.7817 l 29.647,-4.6538 q 9.308,30.3359 41.022,30.3359 26.717,0 41.368,-24.8203 14.65,-24.8203 15.34,-70.8413 -6.895,15.5127 -23.614,24.9926 -16.719,9.3077 -36.713,9.3077 -32.749,0 -52.399,-22.4073 -19.649,-22.4072 -19.649,-59.4653 0,-38.0923 21.373,-59.8101 21.373,-21.8901 59.465,-21.8901 40.506,0 61.362,29.9912 20.856,29.9912 20.856,90.146 z m -33.784,-29.9912 q 0,-29.3018 -13.444,-47.0552 -13.444,-17.9258 -36.024,-17.9258 -22.407,0 -35.334,15.3404 -12.928,15.1679 -12.928,41.1948 0,26.5439 12.928,42.0566 12.927,15.3404 34.989,15.3404 13.445,0 24.993,-6.0327 11.548,-6.2051 18.098,-17.4087 6.722,-11.2036 6.722,-25.5098 z"
     style="fill:#000000;stroke:none"
     id="path526" /></g>
 <g
   aria-label="10"
   style=""
   id="text354"><path
     d="m 15819.889,9453 v -26.3716 h 61.878 v -186.8418 l -54.811,39.1265 v -29.3018 l 57.397,-39.4712 h 28.612 v 216.4883 h 59.12 V 9453 Z"
     style="fill:#000000;stroke:none"
     id="path529" /><path
     d="m 16172.027,9331.4839 q 0,60.8442 -21.546,92.9038 -21.373,32.0596 -63.257,32.0596 -41.884,0 -62.912,-31.8872 -21.029,-31.8872 -21.029,-93.0762 0,-62.5679 20.339,-93.7656 20.511,-31.1978 64.636,-31.1978 42.919,0 63.258,31.5425 20.511,31.5425 20.511,93.4209 z m -31.543,0 q 0,-52.5708 -12.237,-76.1846 -12.066,-23.6138 -39.989,-23.6138 -28.612,0 -41.195,23.2691 -12.41,23.269 -12.41,76.5293 0,51.709 12.583,75.6675 12.755,23.9585 40.333,23.9585 27.406,0 40.16,-24.4756 12.755,-24.4756 12.755,-75.1504 z"
     style="fill:#000000;stroke:none"
     id="path531" /></g>
 <g
   aria-label="11"
   style=""
   id="text362"><path
     d="m 17359.889,9453 v -26.3716 h 61.878 v -186.8418 l -54.811,39.1265 v -29.3018 l 57.397,-39.4712 h 28.612 v 216.4883 h 59.12 V 9453 Z"
     style="fill:#000000;stroke:none"
     id="path534" /><path
     d="m 17530.184,9453 v -26.3716 h 61.878 v -186.8418 l -54.812,39.1265 v -29.3018 l 57.397,-39.4712 h 28.613 v 216.4883 h 59.12 V 9453 Z"
     style="fill:#000000;stroke:none"
     id="path536" /></g>
 <g
   aria-label="12"
   style=""
   id="text370"><path
     d="m 18898.889,9453 v -26.3716 h 61.878 v -186.8418 l -54.811,39.1265 v -29.3018 l 57.397,-39.4712 h 28.612 v 216.4883 h 59.12 V 9453 Z"
     style="fill:#000000;stroke:none"
     id="path539" /><path
     d="m 19086.248,9453 v -21.8901 q 8.79,-20.1665 21.373,-35.5069 12.754,-15.5127 26.716,-27.9228 13.961,-12.5825 27.578,-23.2691 13.789,-10.6865 24.82,-21.373 11.032,-10.6865 17.754,-22.4072 6.894,-11.7207 6.894,-26.544 0,-19.9941 -11.72,-31.0254 -11.721,-11.0312 -32.577,-11.0312 -19.822,0 -32.749,10.8589 -12.755,10.6865 -14.996,30.1635 l -31.715,-2.9301 q 3.448,-29.1294 24.648,-46.3658 21.373,-17.2363 54.812,-17.2363 36.713,0 56.363,17.4087 19.822,17.2363 19.822,49.1235 0,14.1338 -6.55,28.0952 -6.378,13.9615 -19.133,27.9229 -12.755,13.9614 -48.778,43.2632 -19.822,16.2021 -31.543,29.3017 -11.721,12.9273 -16.892,24.9927 h 126.687 V 9453 Z"
     style="fill:#000000;stroke:none"
     id="path541" /></g>
 <g
   aria-label="13"
   style=""
   id="text378"><path
     d="m 20438.889,9453 v -26.3716 h 61.878 v -186.8418 l -54.811,39.1265 v -29.3018 l 57.397,-39.4712 h 28.612 v 216.4883 h 59.12 V 9453 Z"
     style="fill:#000000;stroke:none"
     id="path544" /><path
     d="m 20789.303,9385.9507 q 0,33.6108 -21.373,52.0537 -21.373,18.4429 -61.016,18.4429 -36.886,0 -58.949,-16.5469 -21.89,-16.7192 -26.027,-49.2959 l 32.06,-2.9302 q 6.205,43.0908 52.916,43.0908 23.441,0 36.713,-11.5483 13.444,-11.5483 13.444,-34.3003 0,-19.8218 -15.34,-30.853 -15.168,-11.2036 -43.953,-11.2036 h -17.581 v -26.8887 h 16.892 q 25.51,0 39.471,-11.0313 14.134,-11.2036 14.134,-30.853 0,-19.477 -11.548,-30.6806 -11.376,-11.376 -33.956,-11.376 -20.511,0 -33.266,10.5141 -12.583,10.5142 -14.651,29.6465 l -31.198,-2.4131 q 3.447,-29.8188 24.648,-46.5381 21.373,-16.7192 54.812,-16.7192 36.541,0 56.707,17.064 20.339,16.8916 20.339,47.2275 0,23.2691 -13.1,37.9199 -12.927,14.4785 -37.747,19.6494 v 0.6895 q 27.233,2.9302 42.401,18.2705 15.168,15.3403 15.168,38.6094 z"
     style="fill:#000000;stroke:none"
     id="path546" /></g>
 <g
   aria-label="14"
   style=""
   id="text386"><path
     d="m 21978.889,9453 v -26.3716 h 61.878 v -186.8418 l -54.811,39.1265 v -29.3018 l 57.397,-39.4712 h 28.612 v 216.4883 h 59.12 V 9453 Z"
     style="fill:#000000;stroke:none"
     id="path549" /><path
     d="M 22300.346,9398.0161 V 9453 h -29.302 v -54.9839 h -114.449 v -24.1308 l 111.175,-163.7452 h 32.576 v 163.4004 h 34.128 v 24.4756 z m -29.302,-152.8862 q -0.344,1.0342 -4.826,9.1352 -4.481,8.1011 -6.722,11.376 l -62.223,91.6973 -9.308,12.7549 -2.757,3.4472 h 85.836 z"
     style="fill:#000000;stroke:none"
     id="path551" /></g>
 <g
   aria-label="0"
   style=""
   id="text394"><path
     d="m 1869.5327,8923.4839 q 0,60.8442 -21.5454,92.9038 -21.373,32.0596 -63.2573,32.0596 -41.8843,0 -62.9126,-31.8872 -21.0283,-31.8872 -21.0283,-93.0762 0,-62.5679 20.3388,-93.7656 20.5113,-31.1978 64.6363,-31.1978 42.9184,0 63.2573,31.5425 20.5112,31.5425 20.5112,93.4209 z m -31.5425,0 q 0,-52.5708 -12.2378,-76.1846 -12.0654,-23.6138 -39.9882,-23.6138 -28.6123,0 -41.1949,23.2691 -12.4101,23.269 -12.4101,76.5293 0,51.709 12.5825,75.6675 12.7549,23.9585 40.333,23.9585 27.4058,0 40.1607,-24.4756 12.7548,-24.4756 12.7548,-75.1504 z"
     style="fill:#000000;stroke:none"
     id="path554" /></g>
 <g
   aria-label="5"
   style=""
   id="text402"><path
     d="m 1868.4985,7246.8853 q 0,38.437 -22.9243,60.4995 -22.7519,22.0625 -63.2573,22.0625 -33.9556,0 -54.8115,-14.8233 -20.856,-14.8232 -26.3716,-42.9184 l 31.3701,-3.6197 q 9.8247,36.024 50.5024,36.024 24.9927,0 39.1265,-14.9956 14.1338,-15.168 14.1338,-41.5396 0,-22.9243 -14.3062,-37.0581 -14.1337,-14.1338 -38.2646,-14.1338 -12.5825,0 -23.4414,3.9644 -10.8589,3.9643 -21.7178,13.4443 h -30.3359 l 8.1011,-130.6514 h 138.0629 v 26.3716 h -109.7954 l -4.6538,77.0464 q 20.1665,-15.5127 50.1577,-15.5127 35.8516,0 57.0523,21.0283 21.373,21.0284 21.373,54.8116 z"
     style="fill:#000000;stroke:none"
     id="path557" /></g>
 <g
   aria-label="10"
   style=""
   id="text410"><path
     d="m 1528.8887,5607 v -26.3716 h 61.8784 v -186.8418 l -54.8115,39.1265 v -29.3018 l 57.3969,-39.4712 h 28.6123 v 216.4883 h 59.1206 V 5607 Z"
     style="fill:#000000;stroke:none"
     id="path560" /><path
     d="m 1881.0269,5485.4839 q 0,60.8442 -21.5455,92.9038 -21.373,32.0596 -63.2573,32.0596 -41.8843,0 -62.9126,-31.8872 -21.0283,-31.8872 -21.0283,-93.0762 0,-62.5679 20.3389,-93.7656 20.5112,-31.1978 64.6362,-31.1978 42.9185,0 63.2573,31.5425 20.5113,31.5425 20.5113,93.4209 z m -31.5425,0 q 0,-52.5708 -12.2378,-76.1846 -12.0654,-23.6138 -39.9883,-23.6138 -28.6123,0 -41.1948,23.2691 -12.4102,23.269 -12.4102,76.5293 0,51.709 12.5825,75.6675 12.7549,23.9585 40.333,23.9585 27.4058,0 40.1607,-24.4756 12.7549,-24.4756 12.7549,-75.1504 z"
     style="fill:#000000;stroke:none"
     id="path562" /></g>
 <g
   aria-label="15"
   style=""
   id="text418"><path
     d="m 1528.8887,3888 v -26.3716 h 61.8784 v -186.8418 l -54.8115,39.1265 v -29.3018 l 57.3969,-39.4712 h 28.6123 v 216.4883 h 59.1206 V 3888 Z"
     style="fill:#000000;stroke:none"
     id="path565" /><path
     d="m 1879.9927,3808.8853 q 0,38.437 -22.9243,60.4995 -22.752,22.0625 -63.2574,22.0625 -33.9555,0 -54.8115,-14.8233 -20.8559,-14.8232 -26.3716,-42.9184 l 31.3701,-3.6197 q 9.8248,36.024 50.5025,36.024 24.9927,0 39.1265,-14.9956 14.1337,-15.168 14.1337,-41.5396 0,-22.9243 -14.3061,-37.0581 -14.1338,-14.1338 -38.2647,-14.1338 -12.5825,0 -23.4414,3.9644 -10.8589,3.9643 -21.7177,13.4443 h -30.336 l 8.1011,-130.6514 h 138.063 v 26.3716 h -109.7954 l -4.6538,77.0464 q 20.1665,-15.5127 50.1577,-15.5127 35.8515,0 57.0522,21.0283 21.3731,21.0284 21.3731,54.8116 z"
     style="fill:#000000;stroke:none"
     id="path567" /></g>
 <g
   aria-label="20"
   style=""
   id="text426"><path
     d="m 1519.7534,2169 v -21.8901 q 8.7905,-20.1665 21.3731,-35.5069 12.7548,-15.5127 26.7163,-27.9228 13.9614,-12.5825 27.5781,-23.2691 13.7891,-10.6865 24.8203,-21.373 11.0313,-10.6865 17.7534,-22.4072 6.8946,-11.7207 6.8946,-26.544 0,-19.9941 -11.7207,-31.0254 -11.7207,-11.0312 -32.5767,-11.0312 -19.8218,0 -32.749,10.8589 -12.7549,10.6865 -14.9956,30.1635 l -31.7149,-2.9301 q 3.4473,-29.1294 24.648,-46.3658 21.373,-17.2363 54.8115,-17.2363 36.7134,0 56.3628,17.4087 19.8218,17.2363 19.8218,49.1235 0,14.1338 -6.5498,28.0952 -6.3775,13.9615 -19.1324,27.9229 -12.7548,13.9614 -48.7788,43.2632 -19.8217,16.2021 -31.5425,29.3017 -11.7207,12.9273 -16.8916,24.9927 h 126.6871 V 2169 Z"
     style="fill:#000000;stroke:none"
     id="path570" /><path
     d="m 1881.0269,2047.4839 q 0,60.8442 -21.5455,92.9038 -21.373,32.0596 -63.2573,32.0596 -41.8843,0 -62.9126,-31.8872 -21.0283,-31.8872 -21.0283,-93.0762 0,-62.5679 20.3389,-93.7656 20.5112,-31.1978 64.6362,-31.1978 42.9185,0 63.2573,31.5425 20.5113,31.5425 20.5113,93.4209 z m -31.5425,0 q 0,-52.5708 -12.2378,-76.1846 -12.0654,-23.6138 -39.9883,-23.6138 -28.6123,0 -41.1948,23.2691 -12.4102,23.269 -12.4102,76.5293 0,51.709 12.5825,75.6675 12.7549,23.9585 40.333,23.9585 27.4058,0 40.1607,-24.4756 12.7549,-24.4756 12.7549,-75.1504 z"
     style="fill:#000000;stroke:none"
     id="path572" /></g>
 <g
   aria-label="25"
   style=""
   id="text434"><path
     d="m 1519.7534,450 v -21.89014 q 8.7905,-20.1665 21.3731,-35.50683 12.7548,-15.5127 26.7163,-27.92285 13.9614,-12.58252 27.5781,-23.26905 13.7891,-10.68652 24.8203,-21.37304 11.0313,-10.68653 17.7534,-22.40723 6.8946,-11.7207 6.8946,-26.54395 0,-19.99414 -11.7207,-31.02539 -11.7207,-11.03125 -32.5767,-11.03125 -19.8218,0 -32.749,10.85889 -12.7549,10.68652 -14.9956,30.16357 l -31.7149,-2.93017 q 3.4473,-29.1294 24.648,-46.36572 21.373,-17.23633 54.8115,-17.23633 36.7134,0 56.3628,17.40869 19.8218,17.23633 19.8218,49.12353 0,14.13379 -6.5498,28.09522 -6.3775,13.96142 -19.1324,27.92285 -12.7548,13.96143 -48.7788,43.26318 -19.8217,16.20215 -31.5425,29.30176 -11.7207,12.92725 -16.8916,24.99268 h 126.6871 V 450 Z"
     style="fill:#000000;stroke:none"
     id="path575" /><path
     d="m 1879.9927,370.88525 q 0,38.43702 -22.9243,60.49952 -22.752,22.0625 -63.2574,22.0625 -33.9555,0 -54.8115,-14.82325 -20.8559,-14.82324 -26.3716,-42.91845 l 31.3701,-3.61963 q 9.8248,36.02392 50.5025,36.02392 24.9927,0 39.1265,-14.9956 14.1337,-15.16797 14.1337,-41.53955 0,-22.92432 -14.3061,-37.05811 -14.1338,-14.13379 -38.2647,-14.13379 -12.5825,0 -23.4414,3.96436 -10.8589,3.96435 -21.7177,13.44433 h -30.336 l 8.1011,-130.65136 h 138.063 v 26.37158 h -109.7954 l -4.6538,77.04639 q 20.1665,-15.5127 50.1577,-15.5127 35.8515,0 57.0522,21.02832 21.3731,21.02832 21.3731,54.81152 z"
     style="fill:#000000;stroke:none"
     id="path577" /></g>
 <path
   fill="none"
   stroke="rgb(237,28,36)"
   stroke-width="80"
   stroke-linejoin="round"
   d="M 22981,4918 L 23781,4918"
   id="path436" />
 <path
   fill="rgb(237,28,36)"
   stroke="none"
   d="M 23275,4813 L 23275,5024 23486,5024 23486,4813 23275,4813 Z"
   id="path438" />
 <path
   fill="none"
   stroke="rgb(237,28,36)"
   stroke-linejoin="round"
   d="M 23275,4813 L 23275,5024 23486,5024 23486,4813 23275,4813 Z"
   id="path440" />
 <path
   fill="none"
   stroke="rgb(137,199,101)"
   stroke-width="80"
   stroke-linejoin="round"
   d="M 22981,5337 L 23781,5337"
   id="path442" />
 <path
   fill="rgb(137,199,101)"
   stroke="none"
   d="M 23275,5337 L 23381,5442 23486,5337 23381,5232 23275,5337 Z"
   id="path444" />
 <path
   fill="none"
   stroke="rgb(137,199,101)"
   stroke-linejoin="round"
   d="M 23275,5337 L 23381,5442 23486,5337 23381,5232 23275,5337 Z"
   id="path446" />
 <path
   fill="none"
   stroke="rgb(135,209,209)"
   stroke-width="80"
   stroke-linejoin="round"
   d="M 22981,5755 L 23781,5755"
   id="path448" />
 <path
   fill="rgb(135,209,209)"
   stroke="none"
   d="M 23275,5650 L 23381,5861 23486,5650 23275,5650 Z"
   id="path450" />
 <path
   fill="none"
   stroke="rgb(135,209,209)"
   stroke-linejoin="round"
   d="M 23275,5650 L 23381,5861 23486,5650 23275,5650 Z"
   id="path452" />
 <g
   aria-label="Erwartung [%]"
   style=""
   id="text460"><path
     d="m 23909.957,4997 v -242.8599 h 184.256 v 26.8887 h -151.335 v 77.9082 h 140.994 v 26.544 h -140.994 v 84.6303 h 158.402 V 4997 Z"
     style="fill:#000000;stroke:none"
     id="path580" /><path
     d="m 24141.269,4997 v -143.0615 q 0,-19.6494 -1.035,-43.4356 h 29.302 q 1.379,31.7149 1.379,38.0923 h 0.689 q 7.412,-23.9585 17.064,-32.749 9.653,-8.7905 27.234,-8.7905 6.205,0 12.582,1.7236 v 28.4399 q -6.205,-1.7236 -16.547,-1.7236 -19.304,0 -29.474,16.7192 -10.169,16.5469 -10.169,47.5723 V 4997 Z"
     style="fill:#000000;stroke:none"
     id="path582" /><path
     d="m 24437.044,4997 h -36.024 l -32.577,-131.8579 -6.205,-29.1294 q -1.551,7.7563 -4.826,22.4072 -3.275,14.4785 -35.162,138.5801 h -35.852 l -52.226,-186.4971 h 30.681 l 31.543,126.687 q 1.206,4.1368 7.411,34.128 l 2.93,-12.7549 38.954,-148.0601 h 33.267 l 32.576,128.0659 7.929,32.7491 5.343,-23.9585 35.335,-136.8565 h 30.336 z"
     style="fill:#000000;stroke:none"
     id="path584" /><path
     d="m 24561.146,5000.4473 q -28.096,0 -42.229,-14.8233 -14.134,-14.8232 -14.134,-40.6777 0,-28.957 18.96,-44.4697 19.132,-15.5127 61.533,-16.5469 l 41.885,-0.6895 v -10.1694 q 0,-22.752 -9.653,-32.5767 -9.652,-9.8247 -30.336,-9.8247 -20.856,0 -30.336,7.0669 -9.48,7.0669 -11.376,22.5796 l -32.404,-2.9302 q 7.929,-50.33 74.806,-50.33 35.162,0 52.915,16.2021 17.754,16.0298 17.754,46.5381 v 80.3213 q 0,13.789 3.619,20.8559 3.62,6.8946 13.789,6.8946 4.482,0 10.17,-1.2066 v 19.3047 q -11.721,2.7578 -23.959,2.7578 -17.236,0 -25.165,-8.9629 -7.756,-9.1352 -8.79,-28.4399 h -1.034 q -11.893,21.373 -27.751,30.3359 -15.685,8.7906 -38.264,8.7906 z m 7.066,-23.2691 q 17.064,0 30.336,-7.7563 13.272,-7.7564 20.856,-21.2007 7.757,-13.6167 7.757,-27.9229 v -15.3403 l -33.956,0.6895 q -21.89,0.3447 -33.266,4.4814 -11.204,4.1367 -17.236,12.7549 -6.033,8.6182 -6.033,22.5796 0,15.1679 8.101,23.4414 8.273,8.2734 23.441,8.2734 z"
     style="fill:#000000;stroke:none"
     id="path586" /><path
     d="m 24710.757,4997 v -143.0615 q 0,-19.6494 -1.034,-43.4356 h 29.301 q 1.379,31.7149 1.379,38.0923 h 0.69 q 7.411,-23.9585 17.064,-32.749 9.652,-8.7905 27.233,-8.7905 6.205,0 12.583,1.7236 v 28.4399 q -6.205,-1.7236 -16.547,-1.7236 -19.305,0 -29.474,16.7192 -10.17,16.5469 -10.17,47.5723 V 4997 Z"
     style="fill:#000000;stroke:none"
     id="path588" /><path
     d="m 24899.667,4995.6211 q -15.34,4.1367 -31.37,4.1367 -37.231,0 -37.231,-42.229 v -124.4463 h -21.545 v -22.5796 h 22.752 l 9.135,-41.7119 h 20.684 v 41.7119 h 34.472 v 22.5796 h -34.472 v 117.7241 q 0,13.4444 4.309,18.96 4.481,5.3433 15.34,5.3433 6.205,0 17.926,-2.4131 z"
     style="fill:#000000;stroke:none"
     id="path590" /><path
     d="m 24956.202,4810.5029 v 118.2412 q 0,18.4429 3.62,28.6123 3.619,10.1695 11.548,14.6509 7.929,4.4815 23.269,4.4815 22.407,0 35.335,-15.3404 12.927,-15.3403 12.927,-42.5737 v -108.0718 h 31.025 v 146.6812 q 0,32.5766 1.034,39.8159 h -29.301 q -0.173,-0.8618 -0.345,-4.6538 -0.172,-3.792 -0.517,-8.6182 -0.172,-4.9985 -0.517,-18.6152 h -0.517 q -10.687,19.3047 -24.821,27.4058 -13.961,7.9287 -34.817,7.9287 -30.681,0 -44.987,-15.168 -14.134,-15.3403 -14.134,-50.5024 v -124.274 z"
     style="fill:#000000;stroke:none"
     id="path592" /><path
     d="m 25240.774,4997 v -118.2412 q 0,-18.4429 -3.62,-28.6123 -3.619,-10.1694 -11.548,-14.6509 -7.929,-4.4814 -23.269,-4.4814 -22.407,0 -35.335,15.3403 -12.927,15.3403 -12.927,42.5737 V 4997 h -31.025 v -146.6812 q 0,-32.5766 -1.034,-39.8159 h 29.301 q 0.173,0.8618 0.345,4.6538 0.172,3.792 0.345,8.7906 0.345,4.8261 0.689,18.4428 h 0.517 q 10.687,-19.3047 24.648,-27.2334 14.134,-8.101 34.99,-8.101 30.681,0 44.815,15.3403 14.306,15.168 14.306,50.3301 V 4997 Z"
     style="fill:#000000;stroke:none"
     id="path594" /><path
     d="m 25389.523,5070.2544 q -30.508,0 -48.606,-12.0654 -18.098,-11.8931 -23.269,-33.9556 l 31.198,-4.4814 q 3.102,12.9272 13.616,19.8217 10.687,7.0669 27.923,7.0669 46.366,0 46.366,-54.2944 v -29.9912 h -0.345 q -8.79,17.9258 -24.131,27.061 -15.34,8.9629 -35.851,8.9629 -34.3,0 -50.503,-22.7519 -16.029,-22.752 -16.029,-71.5308 0,-49.4683 17.236,-72.9097 17.409,-23.6137 52.743,-23.6137 19.822,0 34.3,9.1352 14.651,8.9629 22.58,25.6821 h 0.345 q 0,-5.1709 0.689,-17.9257 0.69,-12.7549 1.379,-13.9615 h 29.474 q -1.034,9.3076 -1.034,38.6094 v 142.5444 q 0,78.5977 -78.081,78.5977 z m 47.228,-166.5029 q 0,-22.752 -6.205,-39.1265 -6.205,-16.5469 -17.581,-25.165 -11.204,-8.7906 -25.51,-8.7906 -23.786,0 -34.645,17.2364 -10.859,17.2363 -10.859,55.8457 0,38.2646 10.17,54.9839 10.169,16.7192 34.817,16.7192 14.651,0 26.027,-8.6182 11.376,-8.6181 17.581,-24.6479 6.205,-16.2022 6.205,-38.437 z"
     style="fill:#000000;stroke:none"
     id="path596" /><path
     d="m 25614.63,5070.2544 v -329.0415 h 70.152 v 22.2349 h -40.161 v 284.5717 h 40.161 v 22.2349 z"
     style="fill:#000000;stroke:none"
     id="path598" /><path
     d="m 25988.658,4922.1943 q 0,37.0581 -13.961,57.0523 -13.962,19.8218 -41.195,19.8218 -26.889,0 -40.678,-19.3047 -13.616,-19.4771 -13.616,-57.5694 0,-39.2988 13.099,-58.4311 13.272,-19.3047 41.884,-19.3047 28.268,0 41.368,19.8218 13.099,19.6494 13.099,57.914 z M 25778.203,4997 h -26.717 l 158.919,-242.8599 h 27.061 z m -22.925,-244.9282 q 27.406,0 40.678,19.3047 13.272,19.3047 13.272,57.5693 0,37.4028 -13.789,57.5693 -13.617,20.1665 -40.85,20.1665 -27.234,0 -41.023,-19.9941 -13.616,-19.9941 -13.616,-57.7417 0,-38.437 13.272,-57.5693 13.272,-19.3047 42.056,-19.3047 z m 207.87,170.1225 q 0,-30.853 -6.722,-44.6421 -6.55,-13.9614 -22.235,-13.9614 -15.685,0 -22.752,13.6167 -6.894,13.6167 -6.894,44.9868 0,29.4742 6.722,43.7803 6.895,14.1338 22.58,14.1338 15.168,0 22.235,-14.3062 7.066,-14.4785 7.066,-43.6079 z m -179.257,-93.2485 q 0,-30.3359 -6.55,-44.2974 -6.55,-13.9614 -22.063,-13.9614 -16.202,0 -23.096,13.7891 -6.895,13.6167 -6.895,44.4697 0,29.8188 6.895,44.125 6.894,14.1338 22.752,14.1338 14.995,0 21.89,-14.4785 7.067,-14.4785 7.067,-43.7803 z"
     style="fill:#000000;stroke:none"
     id="path600" /><path
     d="m 26003.826,5070.2544 v -22.2349 h 40.161 v -284.5717 h -40.161 v -22.2349 h 70.152 v 329.0415 z"
     style="fill:#000000;stroke:none"
     id="path602" /></g>
 <g
   aria-label="Ergebnis ALLE [%]"
   style=""
   id="text468"><path
     d="m 23909.957,5415 v -242.8599 h 184.256 v 26.8887 h -151.335 v 77.9082 h 140.994 v 26.544 h -140.994 v 84.6303 h 158.402 V 5415 Z"
     style="fill:#000000;stroke:none"
     id="path605" /><path
     d="m 24141.269,5415 v -143.0615 q 0,-19.6494 -1.035,-43.4356 h 29.302 q 1.379,31.7149 1.379,38.0923 h 0.689 q 7.412,-23.9585 17.064,-32.749 9.653,-8.7905 27.234,-8.7905 6.205,0 12.582,1.7236 v 28.4399 q -6.205,-1.7236 -16.547,-1.7236 -19.304,0 -29.474,16.7192 -10.169,16.5469 -10.169,47.5723 V 5415 Z"
     style="fill:#000000;stroke:none"
     id="path607" /><path
     d="m 24329.145,5488.2544 q -30.509,0 -48.607,-12.0654 -18.098,-11.8931 -23.269,-33.9556 l 31.198,-4.4814 q 3.102,12.9272 13.616,19.8217 10.687,7.0669 27.923,7.0669 46.366,0 46.366,-54.2944 v -29.9912 h -0.345 q -8.79,17.9258 -24.131,27.061 -15.34,8.9629 -35.851,8.9629 -34.3,0 -50.503,-22.7519 -16.029,-22.752 -16.029,-71.5308 0,-49.4683 17.236,-72.9097 17.409,-23.6137 52.743,-23.6137 19.822,0 34.3,9.1352 14.651,8.9629 22.58,25.6821 h 0.345 q 0,-5.1709 0.689,-17.9257 0.69,-12.7549 1.379,-13.9615 h 29.474 q -1.034,9.3076 -1.034,38.6094 v 142.5444 q 0,78.5977 -78.08,78.5977 z m 47.227,-166.5029 q 0,-22.752 -6.205,-39.1265 -6.205,-16.5469 -17.581,-25.165 -11.204,-8.7906 -25.51,-8.7906 -23.786,0 -34.645,17.2364 -10.859,17.2363 -10.859,55.8457 0,38.2646 10.17,54.9839 10.169,16.7192 34.817,16.7192 14.651,0 26.027,-8.6182 11.376,-8.6181 17.581,-24.6479 6.205,-16.2022 6.205,-38.437 z"
     style="fill:#000000;stroke:none"
     id="path609" /><path
     d="m 24478.756,5328.3013 q 0,32.0595 13.272,49.4682 13.272,17.4087 38.782,17.4087 20.166,0 32.232,-8.1011 12.237,-8.101 16.546,-20.5112 l 27.234,7.7564 q -16.719,44.125 -76.012,44.125 -41.368,0 -63.085,-24.648 -21.546,-24.6479 -21.546,-73.2544 0,-46.1933 21.546,-70.8413 21.717,-24.6479 61.878,-24.6479 82.217,0 82.217,99.1089 v 4.1367 z m 101.005,-23.7862 q -2.586,-29.4741 -14.996,-42.9184 -12.41,-13.6167 -35.679,-13.6167 -22.58,0 -35.852,15.1679 -13.099,14.9957 -14.133,41.3672 z"
     style="fill:#000000;stroke:none"
     id="path611" /><path
     d="m 24809.176,5320.8896 q 0,97.5577 -68.6,97.5577 -21.201,0 -35.335,-7.584 -13.961,-7.7564 -22.752,-24.8203 h -0.344 q 0,5.3432 -0.69,16.3745 -0.689,10.8589 -1.034,12.5825 h -29.991 q 1.034,-9.3076 1.034,-38.437 v -217.3501 h 31.025 v 72.9097 q 0,11.2036 -0.689,26.3715 h 0.689 q 8.618,-17.9257 22.752,-25.6821 14.306,-7.7563 35.335,-7.7563 35.334,0 51.881,23.7861 16.719,23.7861 16.719,72.0478 z m -32.576,1.0342 q 0,-39.1264 -10.342,-56.018 -10.342,-16.8916 -33.611,-16.8916 -26.199,0 -38.265,17.9257 -11.893,17.9258 -11.893,56.8799 0,36.7134 11.721,54.2945 11.721,17.4086 38.092,17.4086 23.442,0 33.783,-17.2363 10.515,-17.4087 10.515,-56.3628 z"
     style="fill:#000000;stroke:none"
     id="path613" /><path
     d="m 24966.372,5415 v -118.2412 q 0,-18.4429 -3.62,-28.6123 -3.62,-10.1694 -11.548,-14.6509 -7.929,-4.4814 -23.269,-4.4814 -22.408,0 -35.335,15.3403 -12.927,15.3403 -12.927,42.5737 V 5415 h -31.026 v -146.6812 q 0,-32.5766 -1.034,-39.8159 h 29.302 q 0.172,0.8618 0.345,4.6538 0.172,3.792 0.344,8.7906 0.345,4.8261 0.69,18.4428 h 0.517 q 10.687,-19.3047 24.648,-27.2334 14.134,-8.101 34.99,-8.101 30.68,0 44.814,15.3403 14.306,15.168 14.306,50.3301 V 5415 Z"
     style="fill:#000000;stroke:none"
     id="path615" /><path
     d="m 25044.28,5188.8594 v -29.6465 h 31.025 v 29.6465 z m 0,226.1406 v -186.4971 h 31.025 V 5415 Z"
     style="fill:#000000;stroke:none"
     id="path617" /><path
     d="m 25263.009,5363.4634 q 0,26.3716 -19.994,40.6777 -19.822,14.3062 -55.674,14.3062 -34.817,0 -53.777,-11.376 -18.788,-11.5484 -24.476,-35.8516 l 27.406,-5.3432 q 3.964,14.9956 16.375,22.0625 12.41,6.8945 34.472,6.8945 23.614,0 34.473,-7.2393 11.031,-7.2392 11.031,-21.7177 0,-11.0313 -7.584,-17.9258 -7.584,-6.8945 -24.475,-11.376 l -22.235,-5.8603 q -26.717,-6.8946 -38.093,-13.4444 -11.203,-6.7221 -17.581,-16.2021 -6.377,-9.48 -6.377,-23.2691 0,-25.5097 18.098,-38.7817 18.271,-13.4443 53.088,-13.4443 30.853,0 48.951,10.8588 18.271,10.8589 23.097,34.8174 l -27.923,3.4473 q -2.585,-12.4102 -13.961,-18.96 -11.204,-6.7221 -30.164,-6.7221 -21.028,0 -31.025,6.3774 -9.997,6.3774 -9.997,19.3047 0,7.9287 4.136,13.0996 4.137,5.1709 12.238,8.7905 8.101,3.6197 34.128,9.9971 24.648,6.2051 35.507,11.5483 10.859,5.1709 17.064,11.5484 6.377,6.3774 9.825,14.8232 3.447,8.2735 3.447,18.96 z"
     style="fill:#000000;stroke:none"
     id="path619" /><path
     d="m 25555.509,5415 -27.75,-71.0137 h -110.657 L 25389.179,5415 h -34.128 l 99.109,-242.8599 h 37.402 L 25589.12,5415 Z m -83.079,-218.0396 -1.551,4.8262 q -4.309,14.3062 -12.755,36.7134 l -31.025,79.8042 h 90.835 l -31.198,-80.1489 q -4.826,-11.8931 -9.652,-26.8887 z"
     style="fill:#000000;stroke:none"
     id="path621" /><path
     d="m 25619.111,5415 v -242.8599 h 32.922 v 215.9712 h 122.722 V 5415 Z"
     style="fill:#000000;stroke:none"
     id="path623" /><path
     d="m 25815.605,5415 v -242.8599 h 32.922 v 215.9712 h 122.723 V 5415 Z"
     style="fill:#000000;stroke:none"
     id="path625" /><path
     d="m 26012.1,5415 v -242.8599 h 184.256 v 26.8887 h -151.335 v 77.9082 h 140.993 v 26.544 h -140.993 v 84.6303 h 158.402 V 5415 Z"
     style="fill:#000000;stroke:none"
     id="path627" /><path
     d="m 26342.003,5488.2544 v -329.0415 h 70.152 v 22.2349 h -40.161 v 284.5717 h 40.161 v 22.2349 z"
     style="fill:#000000;stroke:none"
     id="path629" /><path
     d="m 26716.031,5340.1943 q 0,37.0581 -13.961,57.0523 -13.962,19.8218 -41.195,19.8218 -26.889,0 -40.678,-19.3047 -13.616,-19.4771 -13.616,-57.5694 0,-39.2988 13.099,-58.4311 13.272,-19.3047 41.884,-19.3047 28.268,0 41.368,19.8218 13.099,19.6494 13.099,57.914 z M 26505.576,5415 h -26.717 l 158.919,-242.8599 h 27.061 z m -22.925,-244.9282 q 27.406,0 40.678,19.3047 13.272,19.3047 13.272,57.5693 0,37.4028 -13.789,57.5693 -13.617,20.1665 -40.85,20.1665 -27.233,0 -41.023,-19.9941 -13.616,-19.9941 -13.616,-57.7417 0,-38.437 13.272,-57.5693 13.272,-19.3047 42.056,-19.3047 z m 207.87,170.1225 q 0,-30.853 -6.722,-44.6421 -6.549,-13.9614 -22.235,-13.9614 -15.685,0 -22.752,13.6167 -6.894,13.6167 -6.894,44.9868 0,29.4742 6.722,43.7803 6.895,14.1338 22.58,14.1338 15.168,0 22.235,-14.3062 7.066,-14.4785 7.066,-43.6079 z m -179.257,-93.2485 q 0,-30.3359 -6.55,-44.2974 -6.55,-13.9614 -22.063,-13.9614 -16.202,0 -23.096,13.7891 -6.895,13.6167 -6.895,44.4697 0,29.8188 6.895,44.125 6.894,14.1338 22.752,14.1338 14.995,0 21.89,-14.4785 7.067,-14.4785 7.067,-43.7803 z"
     style="fill:#000000;stroke:none"
     id="path631" /><path
     d="m 26731.199,5488.2544 v -22.2349 h 40.161 v -284.5717 h -40.161 v -22.2349 h 70.152 v 329.0415 z"
     style="fill:#000000;stroke:none"
     id="path633" /></g>
 <g
   aria-label="Versuch 1 [%]"
   style=""
   id="text476"><path
     d="m 24015.788,5834 h -34.128 l -99.109,-242.8599 h 34.645 l 67.222,170.9844 14.478,42.9185 14.479,-42.9185 66.877,-170.9844 h 34.645 z"
     style="fill:#000000;stroke:none"
     id="path636" /><path
     d="m 24145.061,5747.3013 q 0,32.0595 13.272,49.4682 13.271,17.4087 38.781,17.4087 20.167,0 32.232,-8.1011 12.238,-8.101 16.547,-20.5112 l 27.233,7.7564 q -16.719,44.125 -76.012,44.125 -41.367,0 -63.085,-24.648 -21.545,-24.6479 -21.545,-73.2544 0,-46.1933 21.545,-70.8413 21.718,-24.6479 61.879,-24.6479 82.217,0 82.217,99.1089 v 4.1367 z m 101.004,-23.7862 q -2.585,-29.4741 -14.995,-42.9184 -12.41,-13.6167 -35.679,-13.6167 -22.58,0 -35.852,15.1679 -13.1,14.9957 -14.134,41.3672 z"
     style="fill:#000000;stroke:none"
     id="path638" /><path
     d="m 24318.458,5834 v -143.0615 q 0,-19.6494 -1.034,-43.4356 h 29.302 q 1.378,31.7149 1.378,38.0923 h 0.69 q 7.412,-23.9585 17.064,-32.749 9.652,-8.7905 27.233,-8.7905 6.205,0 12.583,1.7236 v 28.4399 q -6.205,-1.7236 -16.547,-1.7236 -19.305,0 -29.474,16.7192 -10.17,16.5469 -10.17,47.5723 V 5834 Z"
     style="fill:#000000;stroke:none"
     id="path640" /><path
     d="m 24575.624,5782.4634 q 0,26.3716 -19.994,40.6777 -19.822,14.3062 -55.673,14.3062 -34.818,0 -53.778,-11.376 -18.787,-11.5484 -24.475,-35.8516 l 27.405,-5.3432 q 3.965,14.9956 16.375,22.0625 12.41,6.8945 34.473,6.8945 23.613,0 34.472,-7.2393 11.031,-7.2392 11.031,-21.7177 0,-11.0313 -7.584,-17.9258 -7.584,-6.8945 -24.475,-11.376 l -22.235,-5.8603 q -26.716,-6.8946 -38.092,-13.4444 -11.204,-6.7221 -17.581,-16.2021 -6.378,-9.48 -6.378,-23.2691 0,-25.5097 18.098,-38.7817 18.271,-13.4443 53.088,-13.4443 30.853,0 48.951,10.8588 18.271,10.8589 23.097,34.8174 l -27.923,3.4473 q -2.585,-12.4102 -13.961,-18.96 -11.204,-6.7221 -30.164,-6.7221 -21.028,0 -31.025,6.3774 -9.997,6.3774 -9.997,19.3047 0,7.9287 4.137,13.0996 4.136,5.1709 12.237,8.7905 8.101,3.6197 34.128,9.9971 24.648,6.2051 35.507,11.5483 10.859,5.1709 17.064,11.5484 6.377,6.3774 9.825,14.8232 3.447,8.2735 3.447,18.96 z"
     style="fill:#000000;stroke:none"
     id="path642" /><path
     d="m 24642.501,5647.5029 v 118.2412 q 0,18.4429 3.62,28.6123 3.619,10.1695 11.548,14.6509 7.929,4.4815 23.269,4.4815 22.407,0 35.334,-15.3404 12.928,-15.3403 12.928,-42.5737 v -108.0718 h 31.025 v 146.6812 q 0,32.5766 1.034,39.8159 h -29.301 q -0.173,-0.8618 -0.345,-4.6538 -0.173,-3.792 -0.517,-8.6182 -0.173,-4.9985 -0.517,-18.6152 h -0.517 q -10.687,19.3047 -24.821,27.4058 -13.961,7.9287 -34.817,7.9287 -30.681,0 -44.987,-15.168 -14.134,-15.3403 -14.134,-50.5024 v -124.274 z"
     style="fill:#000000;stroke:none"
     id="path644" /><path
     d="m 24832.273,5739.8896 q 0,37.2305 11.721,55.1563 11.72,17.9258 35.334,17.9258 16.547,0 27.578,-8.9629 11.204,-8.9629 13.789,-27.5781 l 31.37,2.0683 q -3.619,26.8887 -22.924,42.9185 -19.305,16.0298 -48.951,16.0298 -39.127,0 -59.81,-24.648 -20.511,-24.8203 -20.511,-72.2202 0,-47.0552 20.683,-71.7031 20.684,-24.8203 59.293,-24.8203 28.613,0 47.4,14.8232 18.96,14.8232 23.786,40.8501 l -31.887,2.4131 q -2.413,-15.5127 -12.238,-24.648 -9.824,-9.1352 -27.923,-9.1352 -24.648,0 -35.679,16.3745 -11.031,16.3745 -11.031,55.1562 z"
     style="fill:#000000;stroke:none"
     id="path646" /><path
     d="m 25016.012,5679.3901 q 9.997,-18.2705 23.959,-26.7163 14.133,-8.6181 35.679,-8.6181 30.336,0 44.642,15.1679 14.479,14.9956 14.479,50.5025 V 5834 h -31.198 v -118.2412 q 0,-19.6494 -3.62,-29.1294 -3.62,-9.6523 -11.893,-14.1338 -8.273,-4.4814 -22.924,-4.4814 -21.89,0 -35.162,15.1679 -13.1,15.168 -13.1,40.8501 V 5834 h -31.025 v -255.7871 h 31.025 v 66.5322 q 0,10.5142 -0.689,21.7178 -0.518,11.2036 -0.69,12.9272 z"
     style="fill:#000000;stroke:none"
     id="path648" /><path
     d="m 25282.658,5834 v -26.3716 h 61.879 v -186.8418 l -54.812,39.1265 v -29.3018 l 57.397,-39.4712 h 28.612 v 216.4883 h 59.121 V 5834 Z"
     style="fill:#000000;stroke:none"
     id="path650" /><path
     d="m 25575.331,5907.2544 v -329.0415 h 70.152 v 22.2349 h -40.161 v 284.5717 h 40.161 v 22.2349 z"
     style="fill:#000000;stroke:none"
     id="path652" /><path
     d="m 25949.359,5759.1943 q 0,37.0581 -13.961,57.0523 -13.961,19.8218 -41.195,19.8218 -26.889,0 -40.678,-19.3047 -13.616,-19.4771 -13.616,-57.5694 0,-39.2988 13.099,-58.4311 13.272,-19.3047 41.885,-19.3047 28.267,0 41.367,19.8218 13.099,19.6494 13.099,57.914 z M 25738.904,5834 h -26.717 l 158.919,-242.8599 h 27.061 z m -22.925,-244.9282 q 27.406,0 40.678,19.3047 13.272,19.3047 13.272,57.5693 0,37.4028 -13.789,57.5693 -13.617,20.1665 -40.85,20.1665 -27.233,0 -41.022,-19.9941 -13.617,-19.9941 -13.617,-57.7417 0,-38.437 13.272,-57.5693 13.272,-19.3047 42.056,-19.3047 z m 207.871,170.1225 q 0,-30.853 -6.723,-44.6421 -6.549,-13.9614 -22.234,-13.9614 -15.685,0 -22.752,13.6167 -6.895,13.6167 -6.895,44.9868 0,29.4742 6.722,43.7803 6.895,14.1338 22.58,14.1338 15.168,0 22.235,-14.3062 7.067,-14.4785 7.067,-43.6079 z m -179.258,-93.2485 q 0,-30.3359 -6.55,-44.2974 -6.55,-13.9614 -22.063,-13.9614 -16.202,0 -23.096,13.7891 -6.895,13.6167 -6.895,44.4697 0,29.8188 6.895,44.125 6.894,14.1338 22.752,14.1338 14.995,0 21.89,-14.4785 7.067,-14.4785 7.067,-43.7803 z"
     style="fill:#000000;stroke:none"
     id="path654" /><path
     d="m 25964.527,5907.2544 v -22.2349 h 40.161 v -284.5717 h -40.161 v -22.2349 h 70.152 v 329.0415 z"
     style="fill:#000000;stroke:none"
     id="path656" /></g>
 <g
   aria-label="Fach"
   style=""
   id="text484"><path
     d="m 11610.743,9886.4424 v 81.3633 h 122.045 v 24.5332 h -122.045 V 10081 h -29.657 v -218.7803 h 155.429 v 24.2227 z"
     style="fill:#000000;stroke:none"
     id="path659" /><path
     d="m 11813.686,10084.105 q -25.31,0 -38.042,-13.353 -12.733,-13.354 -12.733,-36.645 0,-26.086 17.08,-40.0601 17.236,-13.9746 55.433,-14.9063 l 37.731,-0.6211 v -9.1611 q 0,-20.4961 -8.695,-29.3467 -8.695,-8.8506 -27.328,-8.8506 -18.788,0 -27.328,6.3662 -8.54,6.3663 -10.248,20.3409 l -29.192,-2.6397 q 7.143,-45.3398 67.389,-45.3398 31.676,0 47.669,14.5957 15.993,14.4404 15.993,41.9238 v 72.3578 q 0,12.422 3.261,18.788 3.261,6.211 12.422,6.211 4.037,0 9.161,-1.087 v 17.39 q -10.559,2.485 -21.583,2.485 -15.528,0 -22.67,-8.074 -6.987,-8.23 -7.919,-25.621 h -0.932 q -10.714,19.254 -24.999,27.329 -14.13,7.918 -34.47,7.918 z m 6.366,-20.961 q 15.372,0 27.328,-6.988 11.956,-6.987 18.788,-19.098 6.987,-12.267 6.987,-25.155 v -13.819 l -30.589,0.6211 q -19.719,0.3105 -29.967,4.0369 -10.093,3.727 -15.528,11.49 -5.434,7.764 -5.434,20.341 0,13.664 7.298,21.117 7.453,7.454 21.117,7.454 z"
     style="fill:#000000;stroke:none"
     id="path661" /><path
     d="m 11969.114,9996.2207 q 0,33.5393 10.559,49.6873 10.558,16.149 31.831,16.149 14.906,0 24.844,-8.075 10.092,-8.074 12.422,-24.843 l 28.259,1.863 q -3.26,24.223 -20.651,38.663 -17.391,14.44 -44.098,14.44 -35.247,0 -53.88,-22.204 -18.477,-22.359 -18.477,-65.0592 0,-42.3897 18.633,-64.5938 18.632,-22.3593 53.414,-22.3593 25.775,0 42.7,13.3535 17.08,13.3535 21.428,36.7998 l -28.726,2.1738 q -2.174,-13.9746 -11.024,-22.2041 -8.851,-8.2295 -25.155,-8.2295 -22.204,0 -32.141,14.751 -9.938,14.751 -9.938,49.6875 z"
     style="fill:#000000;stroke:none"
     id="path663" /><path
     d="m 12134.636,9941.7197 q 9.006,-16.459 21.583,-24.0674 12.732,-7.7636 32.141,-7.7636 27.328,0 40.216,13.664 13.043,13.5088 13.043,45.4952 V 10081 h -28.104 v -106.5176 q 0,-17.7011 -3.261,-26.2412 -3.261,-8.6953 -10.714,-12.7324 -7.453,-4.0371 -20.651,-4.0371 -19.72,0 -31.676,13.664 -11.801,13.6641 -11.801,36.7998 V 10081 h -27.949 v -230.4258 h 27.949 v 59.9356 q 0,9.4716 -0.621,19.5644 -0.466,10.0928 -0.621,11.6455 z"
     style="fill:#000000;stroke:none"
     id="path665" /></g>
 <g
   aria-label="Anzahl"
   transform="translate(784,5376) rotate(-90) translate(-784,-5376)"
   style=""
   id="text492"><path
     d="m 965.2041,5376 -24.99902,-63.9727 H 840.51953 L 815.36523,5376 h -30.74414 l 89.28223,-218.7803 h 33.69434 L 995.48242,5376 Z m -74.8418,-196.4209 -1.39746,4.3477 q -3.88183,12.8877 -11.49023,33.0732 l -27.94922,71.8916 h 81.8291 L 903.25,5216.6895 q -4.34766,-10.7139 -8.69531,-24.2227 z"
     style="fill:#000000;stroke:none"
     id="path668" /><path
     d="m 1124.5146,5376 v -106.5176 q 0,-16.6142 -3.2607,-25.7754 -3.2607,-9.1611 -10.4033,-13.1982 -7.1426,-4.0371 -20.9619,-4.0371 -20.1856,0 -31.8311,13.8193 -11.6455,13.8194 -11.6455,38.3526 V 5376 h -27.9492 v -132.1377 q 0,-29.3467 -0.9317,-35.8682 h 26.3965 q 0.1553,0.7764 0.3106,4.1924 0.1553,3.416 0.3105,7.919 0.3106,4.3476 0.6211,16.6142 h 0.4658 q 9.627,-17.3906 22.2041,-24.5332 12.7325,-7.2978 31.5206,-7.2978 27.6386,0 40.371,13.8193 12.8877,13.6641 12.8877,45.3399 V 5376 Z"
     style="fill:#000000;stroke:none"
     id="path670" /><path
     d="m 1186.3135,5376 v -21.2725 l 93.9404,-125.1504 h -88.6611 v -21.583 h 121.7343 v 21.2725 l -94.0957,125.1504 h 97.3565 V 5376 Z"
     style="fill:#000000;stroke:none"
     id="path672" /><path
     d="m 1396.709,5379.1055 q -25.3096,0 -38.042,-13.3535 -12.7324,-13.3536 -12.7324,-36.6446 0,-26.0859 17.08,-40.0605 17.2354,-13.9746 55.4327,-14.9063 l 37.7314,-0.6211 v -9.1611 q 0,-20.4961 -8.6953,-29.3467 -8.6953,-8.8506 -27.3281,-8.8506 -18.7881,0 -27.3282,6.3662 -8.54,6.3663 -10.248,20.3409 l -29.1914,-2.6397 q 7.1426,-45.3398 67.3887,-45.3398 31.6757,0 47.6689,14.5957 15.9932,14.4404 15.9932,41.9238 v 72.3574 q 0,12.4219 3.2607,18.7881 3.2608,6.2109 12.4219,6.2109 4.0371,0 9.1611,-1.0869 v 17.3907 q -10.5586,2.4843 -21.583,2.4843 -15.5273,0 -22.6699,-8.0742 -6.9873,-8.2295 -7.9189,-25.6201 h -0.9317 q -10.7139,19.2539 -24.999,27.3281 -14.1299,7.919 -34.4707,7.919 z m 6.3662,-20.9619 q 15.3721,0 27.3281,-6.9874 11.9561,-6.9873 18.7881,-19.0986 6.9873,-12.2666 6.9873,-25.1543 v -13.8193 l -30.5889,0.6211 q -19.7197,0.3105 -29.9677,4.0371 -10.0928,3.7265 -15.5274,11.4902 -5.4345,7.7637 -5.4345,20.3408 0,13.6641 7.2978,21.1172 7.4531,7.4532 21.1172,7.4532 z"
     style="fill:#000000;stroke:none"
     id="path674" /><path
     d="m 1558.6592,5236.7197 q 9.0058,-16.459 21.583,-24.0674 12.7324,-7.7636 32.1416,-7.7636 27.3281,0 40.2158,13.664 13.043,13.5088 13.043,45.4952 V 5376 h -28.1045 v -106.5176 q 0,-17.7012 -3.2608,-26.2412 -3.2607,-8.6953 -10.7138,-12.7324 -7.4531,-4.0371 -20.6514,-4.0371 -19.7197,0 -31.6758,13.664 -11.8008,13.6641 -11.8008,36.7998 V 5376 h -27.9492 v -230.4258 h 27.9492 v 59.9356 q 0,9.4716 -0.621,19.5644 -0.4659,10.0928 -0.6211,11.6455 z"
     style="fill:#000000;stroke:none"
     id="path676" /><path
     d="m 1707.877,5376 v -230.4258 h 27.9492 V 5376 Z"
     style="fill:#000000;stroke:none"
     id="path678" /></g>
</svg>