<?xml version="1.0" encoding="UTF-8" standalone="no"?>
<svg
   xmlns:dc="http://purl.org/dc/elements/1.1/"
   xmlns:cc="http://creativecommons.org/ns#"
   xmlns:rdf="http://www.w3.org/1999/02/22-rdf-syntax-ns#"
   xmlns:svg="http://www.w3.org/2000/svg"
   xmlns="http://www.w3.org/2000/svg"
   xmlns:sodipodi="http://sodipodi.sourceforge.net/DTD/sodipodi-0.dtd"
   xmlns:inkscape="http://www.inkscape.org/namespaces/inkscape"
   width="243mm"
   height="111mm"
   viewBox="0 0 24300 11100"
   version="1.1"
   stroke-width="28.222"
   stroke-linejoin="round"
   xml:space="preserve"
   id="svg420"
   sodipodi:docname="500_vs_ideal.svg"
   inkscape:version="0.92.3 (2405546, 2018-03-11)"><metadata
   id="metadata426"><rdf:RDF><cc:Work
       rdf:about=""><dc:format>image/svg+xml</dc:format><dc:type
         rdf:resource="http://purl.org/dc/dcmitype/StillImage" /></cc:Work></rdf:RDF></metadata><defs
   id="defs424" /><sodipodi:namedview
   pagecolor="#ffffff"
   bordercolor="#666666"
   borderopacity="1"
   objecttolerance="10"
   gridtolerance="10"
   guidetolerance="10"
   inkscape:pageopacity="0"
   inkscape:pageshadow="2"
   inkscape:window-width="1920"
   inkscape:window-height="1027"
   id="namedview422"
   showgrid="false"
   inkscape:zoom="1.8074417"
   inkscape:cx="589.63196"
   inkscape:cy="310.12824"
   inkscape:window-x="0"
   inkscape:window-y="27"
   inkscape:window-maximized="1"
   inkscape:current-layer="svg420" />
 <path
   fill="rgb(255,255,255)"
   stroke="none"
   d="M 12134,11053 L 0,11053 0,0 24267,0 24267,11053 12134,11053 Z"
   id="path2" />
 <path
   fill="none"
   stroke="rgb(179,179,179)"
   stroke-linejoin="round"
   d="M 10699,10264 L 1106,10264 1106,381 20292,381 20292,10264 10699,10264 Z"
   id="path4" />
 <path
   fill="none"
   stroke="rgb(179,179,179)"
   stroke-linejoin="round"
   d="M 20292,10263 L 1106,10263"
   id="path6" />
 <path
   fill="none"
   stroke="rgb(179,179,179)"
   stroke-linejoin="round"
   d="M 20292,8615 L 1106,8615"
   id="path8" />
 <path
   fill="none"
   stroke="rgb(179,179,179)"
   stroke-linejoin="round"
   d="M 20292,6968 L 1106,6968"
   id="path10" />
 <path
   fill="none"
   stroke="rgb(179,179,179)"
   stroke-linejoin="round"
   d="M 20292,5322 L 1106,5322"
   id="path12" />
 <path
   fill="none"
   stroke="rgb(179,179,179)"
   stroke-linejoin="round"
   d="M 20292,3674 L 1106,3674"
   id="path14" />
 <path
   fill="none"
   stroke="rgb(179,179,179)"
   stroke-linejoin="round"
   d="M 20292,2027 L 1106,2027"
   id="path16" />
 <path
   fill="none"
   stroke="rgb(179,179,179)"
   stroke-linejoin="round"
   d="M 20292,380 L 1106,380"
   id="path18" />
 <path
   fill="none"
   stroke="rgb(179,179,179)"
   stroke-linejoin="round"
   d="M 1106,10413 L 1106,10263"
   id="path20" />
 <path
   fill="none"
   stroke="rgb(179,179,179)"
   stroke-linejoin="round"
   d="M 1106,10413 L 1106,10263"
   id="path22" />
 <path
   fill="none"
   stroke="rgb(179,179,179)"
   stroke-linejoin="round"
   d="M 2581,10413 L 2581,10263"
   id="path24" />
 <path
   fill="none"
   stroke="rgb(179,179,179)"
   stroke-linejoin="round"
   d="M 2581,10413 L 2581,10263"
   id="path26" />
 <path
   fill="none"
   stroke="rgb(179,179,179)"
   stroke-linejoin="round"
   d="M 4057,10413 L 4057,10263"
   id="path28" />
 <path
   fill="none"
   stroke="rgb(179,179,179)"
   stroke-linejoin="round"
   d="M 4057,10413 L 4057,10263"
   id="path30" />
 <path
   fill="none"
   stroke="rgb(179,179,179)"
   stroke-linejoin="round"
   d="M 5533,10413 L 5533,10263"
   id="path32" />
 <path
   fill="none"
   stroke="rgb(179,179,179)"
   stroke-linejoin="round"
   d="M 5533,10413 L 5533,10263"
   id="path34" />
 <path
   fill="none"
   stroke="rgb(179,179,179)"
   stroke-linejoin="round"
   d="M 7009,10413 L 7009,10263"
   id="path36" />
 <path
   fill="none"
   stroke="rgb(179,179,179)"
   stroke-linejoin="round"
   d="M 7009,10413 L 7009,10263"
   id="path38" />
 <path
   fill="none"
   stroke="rgb(179,179,179)"
   stroke-linejoin="round"
   d="M 8485,10413 L 8485,10263"
   id="path40" />
 <path
   fill="none"
   stroke="rgb(179,179,179)"
   stroke-linejoin="round"
   d="M 8485,10413 L 8485,10263"
   id="path42" />
 <path
   fill="none"
   stroke="rgb(179,179,179)"
   stroke-linejoin="round"
   d="M 9961,10413 L 9961,10263"
   id="path44" />
 <path
   fill="none"
   stroke="rgb(179,179,179)"
   stroke-linejoin="round"
   d="M 9961,10413 L 9961,10263"
   id="path46" />
 <path
   fill="none"
   stroke="rgb(179,179,179)"
   stroke-linejoin="round"
   d="M 11437,10413 L 11437,10263"
   id="path48" />
 <path
   fill="none"
   stroke="rgb(179,179,179)"
   stroke-linejoin="round"
   d="M 11437,10413 L 11437,10263"
   id="path50" />
 <path
   fill="none"
   stroke="rgb(179,179,179)"
   stroke-linejoin="round"
   d="M 12912,10413 L 12912,10263"
   id="path52" />
 <path
   fill="none"
   stroke="rgb(179,179,179)"
   stroke-linejoin="round"
   d="M 12912,10413 L 12912,10263"
   id="path54" />
 <path
   fill="none"
   stroke="rgb(179,179,179)"
   stroke-linejoin="round"
   d="M 14388,10413 L 14388,10263"
   id="path56" />
 <path
   fill="none"
   stroke="rgb(179,179,179)"
   stroke-linejoin="round"
   d="M 14388,10413 L 14388,10263"
   id="path58" />
 <path
   fill="none"
   stroke="rgb(179,179,179)"
   stroke-linejoin="round"
   d="M 15864,10413 L 15864,10263"
   id="path60" />
 <path
   fill="none"
   stroke="rgb(179,179,179)"
   stroke-linejoin="round"
   d="M 15864,10413 L 15864,10263"
   id="path62" />
 <path
   fill="none"
   stroke="rgb(179,179,179)"
   stroke-linejoin="round"
   d="M 17340,10413 L 17340,10263"
   id="path64" />
 <path
   fill="none"
   stroke="rgb(179,179,179)"
   stroke-linejoin="round"
   d="M 17340,10413 L 17340,10263"
   id="path66" />
 <path
   fill="none"
   stroke="rgb(179,179,179)"
   stroke-linejoin="round"
   d="M 18816,10413 L 18816,10263"
   id="path68" />
 <path
   fill="none"
   stroke="rgb(179,179,179)"
   stroke-linejoin="round"
   d="M 18816,10413 L 18816,10263"
   id="path70" />
 <path
   fill="none"
   stroke="rgb(179,179,179)"
   stroke-linejoin="round"
   d="M 20292,10413 L 20292,10263"
   id="path72" />
 <path
   fill="none"
   stroke="rgb(179,179,179)"
   stroke-linejoin="round"
   d="M 20292,10413 L 20292,10263"
   id="path74" />
 <path
   fill="none"
   stroke="rgb(179,179,179)"
   stroke-linejoin="round"
   d="M 1106,10263 L 20292,10263"
   id="path76" />
 <path
   fill="none"
   stroke="rgb(179,179,179)"
   stroke-linejoin="round"
   d="M 956,10263 L 1106,10263"
   id="path78" />
 <path
   fill="none"
   stroke="rgb(179,179,179)"
   stroke-linejoin="round"
   d="M 956,10263 L 1106,10263"
   id="path80" />
 <path
   fill="none"
   stroke="rgb(179,179,179)"
   stroke-linejoin="round"
   d="M 956,8615 L 1106,8615"
   id="path82" />
 <path
   fill="none"
   stroke="rgb(179,179,179)"
   stroke-linejoin="round"
   d="M 956,8615 L 1106,8615"
   id="path84" />
 <path
   fill="none"
   stroke="rgb(179,179,179)"
   stroke-linejoin="round"
   d="M 956,6968 L 1106,6968"
   id="path86" />
 <path
   fill="none"
   stroke="rgb(179,179,179)"
   stroke-linejoin="round"
   d="M 956,6968 L 1106,6968"
   id="path88" />
 <path
   fill="none"
   stroke="rgb(179,179,179)"
   stroke-linejoin="round"
   d="M 956,5322 L 1106,5322"
   id="path90" />
 <path
   fill="none"
   stroke="rgb(179,179,179)"
   stroke-linejoin="round"
   d="M 956,5322 L 1106,5322"
   id="path92" />
 <path
   fill="none"
   stroke="rgb(179,179,179)"
   stroke-linejoin="round"
   d="M 956,3674 L 1106,3674"
   id="path94" />
 <path
   fill="none"
   stroke="rgb(179,179,179)"
   stroke-linejoin="round"
   d="M 956,3674 L 1106,3674"
   id="path96" />
 <path
   fill="none"
   stroke="rgb(179,179,179)"
   stroke-linejoin="round"
   d="M 956,2027 L 1106,2027"
   id="path98" />
 <path
   fill="none"
   stroke="rgb(179,179,179)"
   stroke-linejoin="round"
   d="M 956,2027 L 1106,2027"
   id="path100" />
 <path
   fill="none"
   stroke="rgb(179,179,179)"
   stroke-linejoin="round"
   d="M 956,380 L 1106,380"
   id="path102" />
 <path
   fill="none"
   stroke="rgb(179,179,179)"
   stroke-linejoin="round"
   d="M 956,380 L 1106,380"
   id="path104" />
 <path
   fill="none"
   stroke="rgb(179,179,179)"
   stroke-linejoin="round"
   d="M 1106,10263 L 1106,380"
   id="path106" />
 <path
   fill="none"
   stroke="rgb(0,69,134)"
   stroke-width="80"
   stroke-linejoin="round"
   d="M 1106,10258 L 2581,10197 4057,9871 5533,8825 7009,6667 8485,3794 9961,1636 11437,1636 12912,3794 14388,6667 15864,8825 17340,9871 18816,10197 20292,10258"
   id="path108" />
 <path
   fill="rgb(0,69,134)"
   stroke="none"
   d="M 981,10133 L 981,10383 1231,10383 1231,10133 981,10133 Z"
   id="path110" />
 <path
   fill="none"
   stroke="rgb(0,69,134)"
   stroke-linejoin="round"
   d="M 981,10133 L 981,10383 1231,10383 1231,10133 981,10133 Z"
   id="path112" />
 <path
   fill="rgb(0,69,134)"
   stroke="none"
   d="M 2456,10072 L 2456,10322 2706,10322 2706,10072 2456,10072 Z"
   id="path114" />
 <path
   fill="none"
   stroke="rgb(0,69,134)"
   stroke-linejoin="round"
   d="M 2456,10072 L 2456,10322 2706,10322 2706,10072 2456,10072 Z"
   id="path116" />
 <path
   fill="rgb(0,69,134)"
   stroke="none"
   d="M 3932,9746 L 3932,9996 4182,9996 4182,9746 3932,9746 Z"
   id="path118" />
 <path
   fill="none"
   stroke="rgb(0,69,134)"
   stroke-linejoin="round"
   d="M 3932,9746 L 3932,9996 4182,9996 4182,9746 3932,9746 Z"
   id="path120" />
 <path
   fill="rgb(0,69,134)"
   stroke="none"
   d="M 5408,8700 L 5408,8950 5658,8950 5658,8700 5408,8700 Z"
   id="path122" />
 <path
   fill="none"
   stroke="rgb(0,69,134)"
   stroke-linejoin="round"
   d="M 5408,8700 L 5408,8950 5658,8950 5658,8700 5408,8700 Z"
   id="path124" />
 <path
   fill="rgb(0,69,134)"
   stroke="none"
   d="M 6884,6542 L 6884,6792 7134,6792 7134,6542 6884,6542 Z"
   id="path126" />
 <path
   fill="none"
   stroke="rgb(0,69,134)"
   stroke-linejoin="round"
   d="M 6884,6542 L 6884,6792 7134,6792 7134,6542 6884,6542 Z"
   id="path128" />
 <path
   fill="rgb(0,69,134)"
   stroke="none"
   d="M 8360,3669 L 8360,3919 8610,3919 8610,3669 8360,3669 Z"
   id="path130" />
 <path
   fill="none"
   stroke="rgb(0,69,134)"
   stroke-linejoin="round"
   d="M 8360,3669 L 8360,3919 8610,3919 8610,3669 8360,3669 Z"
   id="path132" />
 <path
   fill="rgb(0,69,134)"
   stroke="none"
   d="M 9836,1511 L 9836,1761 10086,1761 10086,1511 9836,1511 Z"
   id="path134" />
 <path
   fill="none"
   stroke="rgb(0,69,134)"
   stroke-linejoin="round"
   d="M 9836,1511 L 9836,1761 10086,1761 10086,1511 9836,1511 Z"
   id="path136" />
 <path
   fill="rgb(0,69,134)"
   stroke="none"
   d="M 11312,1511 L 11312,1761 11562,1761 11562,1511 11312,1511 Z"
   id="path138" />
 <path
   fill="none"
   stroke="rgb(0,69,134)"
   stroke-linejoin="round"
   d="M 11312,1511 L 11312,1761 11562,1761 11562,1511 11312,1511 Z"
   id="path140" />
 <path
   fill="rgb(0,69,134)"
   stroke="none"
   d="M 12787,3669 L 12787,3919 13037,3919 13037,3669 12787,3669 Z"
   id="path142" />
 <path
   fill="none"
   stroke="rgb(0,69,134)"
   stroke-linejoin="round"
   d="M 12787,3669 L 12787,3919 13037,3919 13037,3669 12787,3669 Z"
   id="path144" />
 <path
   fill="rgb(0,69,134)"
   stroke="none"
   d="M 14263,6542 L 14263,6792 14513,6792 14513,6542 14263,6542 Z"
   id="path146" />
 <path
   fill="none"
   stroke="rgb(0,69,134)"
   stroke-linejoin="round"
   d="M 14263,6542 L 14263,6792 14513,6792 14513,6542 14263,6542 Z"
   id="path148" />
 <path
   fill="rgb(0,69,134)"
   stroke="none"
   d="M 15739,8700 L 15739,8950 15989,8950 15989,8700 15739,8700 Z"
   id="path150" />
 <path
   fill="none"
   stroke="rgb(0,69,134)"
   stroke-linejoin="round"
   d="M 15739,8700 L 15739,8950 15989,8950 15989,8700 15739,8700 Z"
   id="path152" />
 <path
   fill="rgb(0,69,134)"
   stroke="none"
   d="M 17215,9746 L 17215,9996 17465,9996 17465,9746 17215,9746 Z"
   id="path154" />
 <path
   fill="none"
   stroke="rgb(0,69,134)"
   stroke-linejoin="round"
   d="M 17215,9746 L 17215,9996 17465,9996 17465,9746 17215,9746 Z"
   id="path156" />
 <path
   fill="rgb(0,69,134)"
   stroke="none"
   d="M 18691,10072 L 18691,10322 18941,10322 18941,10072 18691,10072 Z"
   id="path158" />
 <path
   fill="none"
   stroke="rgb(0,69,134)"
   stroke-linejoin="round"
   d="M 18691,10072 L 18691,10322 18941,10322 18941,10072 18691,10072 Z"
   id="path160" />
 <path
   fill="rgb(0,69,134)"
   stroke="none"
   d="M 20167,10133 L 20167,10383 20417,10383 20417,10133 20167,10133 Z"
   id="path162" />
 <path
   fill="none"
   stroke="rgb(0,69,134)"
   stroke-linejoin="round"
   d="M 20167,10133 L 20167,10383 20417,10383 20417,10133 20167,10133 Z"
   id="path164" />
 <path
   fill="none"
   stroke="rgb(255,66,14)"
   stroke-width="80"
   stroke-linejoin="round"
   d="M 1106,9192 L 2581,8862 4057,8533 5533,7462 7009,4168 8485,4251 9961,4498 11437,3921 12912,4415 14388,7380 15864,9521 17340,9851 18816,10180 20292,10263"
   id="path166" />
 <path
   fill="rgb(255,66,14)"
   stroke="none"
   d="M 981,9192 L 1106,9317 1231,9192 1106,9067 981,9192 Z"
   id="path168" />
 <path
   fill="none"
   stroke="rgb(255,66,14)"
   stroke-linejoin="round"
   d="M 981,9192 L 1106,9317 1231,9192 1106,9067 981,9192 Z"
   id="path170" />
 <path
   fill="rgb(255,66,14)"
   stroke="none"
   d="M 2456,8862 L 2581,8987 2706,8862 2581,8737 2456,8862 Z"
   id="path172" />
 <path
   fill="none"
   stroke="rgb(255,66,14)"
   stroke-linejoin="round"
   d="M 2456,8862 L 2581,8987 2706,8862 2581,8737 2456,8862 Z"
   id="path174" />
 <path
   fill="rgb(255,66,14)"
   stroke="none"
   d="M 3932,8533 L 4057,8658 4182,8533 4057,8408 3932,8533 Z"
   id="path176" />
 <path
   fill="none"
   stroke="rgb(255,66,14)"
   stroke-linejoin="round"
   d="M 3932,8533 L 4057,8658 4182,8533 4057,8408 3932,8533 Z"
   id="path178" />
 <path
   fill="rgb(255,66,14)"
   stroke="none"
   d="M 5408,7462 L 5533,7587 5658,7462 5533,7337 5408,7462 Z"
   id="path180" />
 <path
   fill="none"
   stroke="rgb(255,66,14)"
   stroke-linejoin="round"
   d="M 5408,7462 L 5533,7587 5658,7462 5533,7337 5408,7462 Z"
   id="path182" />
 <path
   fill="rgb(255,66,14)"
   stroke="none"
   d="M 6884,4168 L 7009,4293 7134,4168 7009,4043 6884,4168 Z"
   id="path184" />
 <path
   fill="none"
   stroke="rgb(255,66,14)"
   stroke-linejoin="round"
   d="M 6884,4168 L 7009,4293 7134,4168 7009,4043 6884,4168 Z"
   id="path186" />
 <path
   fill="rgb(255,66,14)"
   stroke="none"
   d="M 8360,4251 L 8485,4376 8610,4251 8485,4126 8360,4251 Z"
   id="path188" />
 <path
   fill="none"
   stroke="rgb(255,66,14)"
   stroke-linejoin="round"
   d="M 8360,4251 L 8485,4376 8610,4251 8485,4126 8360,4251 Z"
   id="path190" />
 <path
   fill="rgb(255,66,14)"
   stroke="none"
   d="M 9836,4498 L 9961,4623 10086,4498 9961,4373 9836,4498 Z"
   id="path192" />
 <path
   fill="none"
   stroke="rgb(255,66,14)"
   stroke-linejoin="round"
   d="M 9836,4498 L 9961,4623 10086,4498 9961,4373 9836,4498 Z"
   id="path194" />
 <path
   fill="rgb(255,66,14)"
   stroke="none"
   d="M 11312,3921 L 11437,4046 11562,3921 11437,3796 11312,3921 Z"
   id="path196" />
 <path
   fill="none"
   stroke="rgb(255,66,14)"
   stroke-linejoin="round"
   d="M 11312,3921 L 11437,4046 11562,3921 11437,3796 11312,3921 Z"
   id="path198" />
 <path
   fill="rgb(255,66,14)"
   stroke="none"
   d="M 12787,4415 L 12912,4540 13037,4415 12912,4290 12787,4415 Z"
   id="path200" />
 <path
   fill="none"
   stroke="rgb(255,66,14)"
   stroke-linejoin="round"
   d="M 12787,4415 L 12912,4540 13037,4415 12912,4290 12787,4415 Z"
   id="path202" />
 <path
   fill="rgb(255,66,14)"
   stroke="none"
   d="M 14263,7380 L 14388,7505 14513,7380 14388,7255 14263,7380 Z"
   id="path204" />
 <path
   fill="none"
   stroke="rgb(255,66,14)"
   stroke-linejoin="round"
   d="M 14263,7380 L 14388,7505 14513,7380 14388,7255 14263,7380 Z"
   id="path206" />
 <path
   fill="rgb(255,66,14)"
   stroke="none"
   d="M 15739,9521 L 15864,9646 15989,9521 15864,9396 15739,9521 Z"
   id="path208" />
 <path
   fill="none"
   stroke="rgb(255,66,14)"
   stroke-linejoin="round"
   d="M 15739,9521 L 15864,9646 15989,9521 15864,9396 15739,9521 Z"
   id="path210" />
 <path
   fill="rgb(255,66,14)"
   stroke="none"
   d="M 17215,9851 L 17340,9976 17465,9851 17340,9726 17215,9851 Z"
   id="path212" />
 <path
   fill="none"
   stroke="rgb(255,66,14)"
   stroke-linejoin="round"
   d="M 17215,9851 L 17340,9976 17465,9851 17340,9726 17215,9851 Z"
   id="path214" />
 <path
   fill="rgb(255,66,14)"
   stroke="none"
   d="M 18691,10180 L 18816,10305 18941,10180 18816,10055 18691,10180 Z"
   id="path216" />
 <path
   fill="none"
   stroke="rgb(255,66,14)"
   stroke-linejoin="round"
   d="M 18691,10180 L 18816,10305 18941,10180 18816,10055 18691,10180 Z"
   id="path218" />
 <path
   fill="rgb(255,66,14)"
   stroke="none"
   d="M 20167,10263 L 20292,10388 20417,10263 20292,10138 20167,10263 Z"
   id="path220" />
 <path
   fill="none"
   stroke="rgb(255,66,14)"
   stroke-linejoin="round"
   d="M 20167,10263 L 20292,10388 20417,10263 20292,10138 20167,10263 Z"
   id="path222" />
 <g
   aria-label="1"
   style=""
   id="text230"><path
     d="m 1039.8887,10751 v -26.372 h 61.8784 v -186.841 l -54.8115,39.126 v -29.302 l 57.3969,-39.471 h 28.6123 v 216.488 h 59.1206 V 10751 Z"
     style="fill:#000000;stroke:none"
     id="path4161" /></g>
 <g
   aria-label="2"
   style=""
   id="text238"><path
     d="m 2505.7534,10751 v -21.89 q 8.7905,-20.167 21.3731,-35.507 12.7548,-15.513 26.7163,-27.923 13.9614,-12.582 27.5781,-23.269 13.7891,-10.686 24.8203,-21.373 11.0313,-10.686 17.7534,-22.407 6.8946,-11.721 6.8946,-26.544 0,-19.994 -11.7207,-31.025 -11.7207,-11.032 -32.5767,-11.032 -19.8218,0 -32.749,10.859 -12.7549,10.687 -14.9956,30.164 l -31.7149,-2.93 q 3.4473,-29.13 24.648,-46.366 21.373,-17.236 54.8115,-17.236 36.7134,0 56.3628,17.408 19.8218,17.237 19.8218,49.124 0,14.134 -6.5498,28.095 -6.3775,13.961 -19.1324,27.923 -12.7548,13.961 -48.7788,43.263 -19.8217,16.202 -31.5425,29.302 -11.7207,12.927 -16.8916,24.992 h 126.6871 V 10751 Z"
     style="fill:#000000;stroke:none"
     id="path4164" /></g>
 <g
   aria-label="3"
   style=""
   id="text246"><path
     d="m 4144.8091,10683.951 q 0,33.611 -21.3731,52.053 -21.373,18.443 -61.0166,18.443 -36.8857,0 -58.9482,-16.547 -21.8901,-16.719 -26.0269,-49.296 l 32.0596,-2.93 q 6.2051,43.091 52.9155,43.091 23.4414,0 36.7134,-11.548 13.4443,-11.549 13.4443,-34.3 0,-19.822 -15.3403,-30.854 -15.168,-11.203 -43.9526,-11.203 h -17.5811 v -26.889 h 16.8916 q 25.5098,0 39.4712,-11.031 14.1338,-11.204 14.1338,-30.853 0,-19.477 -11.5483,-30.681 -11.376,-11.376 -33.9556,-11.376 -20.5112,0 -33.2661,10.514 -12.5825,10.515 -14.6509,29.647 l -31.1977,-2.413 q 3.4472,-29.819 24.6479,-46.538 21.3731,-16.719 54.8115,-16.719 36.541,0 56.7075,17.063 20.3389,16.892 20.3389,47.228 0,23.269 -13.0996,37.92 -12.9272,14.478 -37.7476,19.649 v 0.69 q 27.2334,2.93 42.4014,18.27 15.168,15.341 15.168,38.61 z"
     style="fill:#000000;stroke:none"
     id="path4167" /></g>
 <g
   aria-label="4"
   style=""
   id="text254"><path
     d="M 5591.8521,10696.016 V 10751 h -29.3018 v -54.984 h -114.4492 v -24.131 l 111.1743,-163.745 h 32.5767 v 163.401 h 34.1279 v 24.475 z m -29.3018,-152.886 q -0.3447,1.034 -4.8262,9.135 -4.4814,8.101 -6.7221,11.376 l -62.2232,91.697 -9.3076,12.755 -2.7578,3.448 h 85.8369 z"
     style="fill:#000000;stroke:none"
     id="path4170" /></g>
 <g
   aria-label="5"
   style=""
   id="text262"><path
     d="m 7097.4985,10671.885 q 0,38.437 -22.9243,60.5 -22.7519,22.062 -63.2573,22.062 -33.9556,0 -54.8115,-14.823 -20.856,-14.823 -26.3716,-42.918 l 31.3701,-3.62 q 9.8247,36.024 50.5024,36.024 24.9927,0 39.1265,-14.996 14.1338,-15.168 14.1338,-41.539 0,-22.925 -14.3062,-37.058 -14.1337,-14.134 -38.2646,-14.134 -12.5825,0 -23.4414,3.964 -10.8589,3.965 -21.7178,13.445 h -30.3359 l 8.1011,-130.652 h 138.0629 v 26.372 h -109.7954 l -4.6538,77.046 q 20.1665,-15.513 50.1577,-15.513 35.8516,0 57.0523,21.029 21.373,21.028 21.373,54.811 z"
     style="fill:#000000;stroke:none"
     id="path4173" /></g>
 <g
   aria-label="6"
   style=""
   id="text270"><path
     d="m 8572.8091,10671.541 q 0,38.437 -20.856,60.671 -20.8559,22.235 -57.5693,22.235 -41.0225,0 -62.7402,-30.508 -21.7178,-30.508 -21.7178,-88.767 0,-63.085 22.5796,-96.868 22.5796,-33.783 64.2915,-33.783 54.9839,0 69.29,49.468 l -29.6465,5.343 q -9.1352,-29.646 -39.9883,-29.646 -26.5439,0 -41.1948,24.82 -14.4785,24.648 -14.4785,71.531 8.4458,-15.685 23.7861,-23.787 15.3404,-8.273 35.1622,-8.273 33.6108,0 53.2602,21.028 19.8218,21.029 19.8218,56.536 z m -31.5425,1.378 q 0,-26.371 -12.9272,-40.677 -12.9273,-14.306 -36.024,-14.306 -21.7177,0 -35.1621,12.754 -13.272,12.583 -13.272,34.818 0,28.095 13.7891,46.021 13.9614,17.926 35.6792,17.926 22.4072,0 35.1621,-14.996 12.7549,-15.168 12.7549,-41.54 z"
     style="fill:#000000;stroke:none"
     id="path4176" /></g>
 <g
   aria-label="7"
   style=""
   id="text278"><path
     d="m 10046.568,10533.305 q -37.23,56.88 -52.5704,89.112 -15.3404,32.232 -23.0967,63.602 -7.584,31.37 -7.584,64.981 h -32.4043 q 0,-46.538 19.6494,-97.902 19.8218,-51.537 66.015,-118.586 h -130.4789 v -26.372 h 160.4699 z"
     style="fill:#000000;stroke:none"
     id="path4179" /></g>
 <g
   aria-label="8"
   style=""
   id="text286"><path
     d="m 11524.981,10683.261 q 0,33.611 -21.373,52.399 -21.373,18.787 -61.361,18.787 -38.954,0 -61.017,-18.443 -21.89,-18.442 -21.89,-52.398 0,-23.786 13.617,-39.988 13.617,-16.202 34.817,-19.65 v -0.689 q -19.821,-4.654 -31.37,-20.167 -11.376,-15.512 -11.376,-36.368 0,-27.751 20.684,-44.987 20.856,-17.236 55.846,-17.236 35.851,0 56.535,16.891 20.856,16.892 20.856,45.676 0,20.856 -11.549,36.369 -11.548,15.513 -31.542,19.477 v 0.69 q 23.269,3.792 36.196,19.821 12.927,15.858 12.927,39.816 z m -38.264,-114.449 q 0,-41.195 -45.159,-41.195 -21.891,0 -33.439,10.342 -11.376,10.342 -11.376,30.853 0,20.856 11.721,31.887 11.893,10.859 33.438,10.859 21.89,0 33.266,-9.997 11.549,-10.169 11.549,-32.749 z m 6.033,111.519 q 0,-22.58 -13.445,-33.956 -13.444,-11.548 -37.747,-11.548 -23.614,0 -36.886,12.41 -13.272,12.238 -13.272,33.784 0,50.157 51.192,50.157 25.337,0 37.747,-12.065 12.411,-12.238 12.411,-38.782 z"
     style="fill:#000000;stroke:none"
     id="path4182" /></g>
 <g
   aria-label="9"
   style=""
   id="text294"><path
     d="m 12999.603,10624.658 q 0,62.568 -22.925,96.178 -22.752,33.611 -64.981,33.611 -28.44,0 -45.676,-11.893 -17.064,-12.065 -24.476,-38.782 l 29.647,-4.653 q 9.308,30.336 41.022,30.336 26.717,0 41.368,-24.821 14.65,-24.82 15.34,-70.841 -6.895,15.513 -23.614,24.993 -16.719,9.307 -36.713,9.307 -32.749,0 -52.399,-22.407 -19.649,-22.407 -19.649,-59.465 0,-38.093 21.373,-59.81 21.373,-21.89 59.465,-21.89 40.506,0 61.362,29.991 20.856,29.991 20.856,90.146 z m -33.784,-29.991 q 0,-29.302 -13.444,-47.056 -13.444,-17.925 -36.024,-17.925 -22.407,0 -35.334,15.34 -12.928,15.168 -12.928,41.195 0,26.544 12.928,42.056 12.927,15.341 34.989,15.341 13.445,0 24.993,-6.033 11.548,-6.205 18.098,-17.409 6.722,-11.203 6.722,-25.509 z"
     style="fill:#000000;stroke:none"
     id="path4185" /></g>
 <g
   aria-label="10"
   style=""
   id="text302"><path
     d="m 14230.889,10751 v -26.372 h 61.878 v -186.841 l -54.811,39.126 v -29.302 l 57.397,-39.471 h 28.612 v 216.488 h 59.12 V 10751 Z"
     style="fill:#000000;stroke:none"
     id="path4188" /><path
     d="m 14583.027,10629.484 q 0,60.844 -21.546,92.904 -21.373,32.059 -63.257,32.059 -41.884,0 -62.912,-31.887 -21.029,-31.887 -21.029,-93.076 0,-62.568 20.339,-93.766 20.511,-31.197 64.636,-31.197 42.919,0 63.258,31.542 20.511,31.542 20.511,93.421 z m -31.543,0 q 0,-52.571 -12.237,-76.185 -12.066,-23.613 -39.989,-23.613 -28.612,0 -41.195,23.269 -12.41,23.269 -12.41,76.529 0,51.709 12.583,75.667 12.755,23.959 40.333,23.959 27.406,0 40.16,-24.476 12.755,-24.475 12.755,-75.15 z"
     style="fill:#000000;stroke:none"
     id="path4190" /></g>
 <g
   aria-label="11"
   style=""
   id="text310"><path
     d="m 15706.889,10751 v -26.372 h 61.878 v -186.841 l -54.811,39.126 v -29.302 l 57.397,-39.471 h 28.612 v 216.488 h 59.12 V 10751 Z"
     style="fill:#000000;stroke:none"
     id="path4193" /><path
     d="m 15877.184,10751 v -26.372 h 61.878 v -186.841 l -54.812,39.126 v -29.302 l 57.397,-39.471 h 28.613 v 216.488 h 59.12 V 10751 Z"
     style="fill:#000000;stroke:none"
     id="path4195" /></g>
 <g
   aria-label="12"
   style=""
   id="text318"><path
     d="m 17182.889,10751 v -26.372 h 61.878 v -186.841 l -54.811,39.126 v -29.302 l 57.397,-39.471 h 28.612 v 216.488 h 59.12 V 10751 Z"
     style="fill:#000000;stroke:none"
     id="path4198" /><path
     d="m 17370.248,10751 v -21.89 q 8.79,-20.167 21.373,-35.507 12.754,-15.513 26.716,-27.923 13.961,-12.582 27.578,-23.269 13.789,-10.686 24.82,-21.373 11.032,-10.686 17.754,-22.407 6.894,-11.721 6.894,-26.544 0,-19.994 -11.72,-31.025 -11.721,-11.032 -32.577,-11.032 -19.822,0 -32.749,10.859 -12.755,10.687 -14.996,30.164 l -31.715,-2.93 q 3.448,-29.13 24.648,-46.366 21.373,-17.236 54.812,-17.236 36.713,0 56.363,17.408 19.822,17.237 19.822,49.124 0,14.134 -6.55,28.095 -6.378,13.961 -19.133,27.923 -12.755,13.961 -48.778,43.263 -19.822,16.202 -31.543,29.302 -11.721,12.927 -16.892,24.992 h 126.687 V 10751 Z"
     style="fill:#000000;stroke:none"
     id="path4200" /></g>
 <g
   aria-label="13"
   style=""
   id="text326"><path
     d="m 18658.889,10751 v -26.372 h 61.878 v -186.841 l -54.811,39.126 v -29.302 l 57.397,-39.471 h 28.612 v 216.488 h 59.12 V 10751 Z"
     style="fill:#000000;stroke:none"
     id="path4203" /><path
     d="m 19009.303,10683.951 q 0,33.611 -21.373,52.053 -21.373,18.443 -61.016,18.443 -36.886,0 -58.949,-16.547 -21.89,-16.719 -26.027,-49.296 l 32.06,-2.93 q 6.205,43.091 52.916,43.091 23.441,0 36.713,-11.548 13.444,-11.549 13.444,-34.3 0,-19.822 -15.34,-30.854 -15.168,-11.203 -43.953,-11.203 h -17.581 v -26.889 h 16.892 q 25.51,0 39.471,-11.031 14.134,-11.204 14.134,-30.853 0,-19.477 -11.548,-30.681 -11.376,-11.376 -33.956,-11.376 -20.511,0 -33.266,10.514 -12.583,10.515 -14.651,29.647 l -31.198,-2.413 q 3.447,-29.819 24.648,-46.538 21.373,-16.719 54.812,-16.719 36.541,0 56.707,17.063 20.339,16.892 20.339,47.228 0,23.269 -13.1,37.92 -12.927,14.478 -37.747,19.649 v 0.69 q 27.233,2.93 42.401,18.27 15.168,15.341 15.168,38.61 z"
     style="fill:#000000;stroke:none"
     id="path4205" /></g>
 <g
   aria-label="14"
   style=""
   id="text334"><path
     d="m 20134.889,10751 v -26.372 h 61.878 v -186.841 l -54.811,39.126 v -29.302 l 57.397,-39.471 h 28.612 v 216.488 h 59.12 V 10751 Z"
     style="fill:#000000;stroke:none"
     id="path4208" /><path
     d="M 20456.346,10696.016 V 10751 h -29.302 v -54.984 h -114.449 v -24.131 l 111.175,-163.745 h 32.576 v 163.401 h 34.128 v 24.475 z m -29.302,-152.886 q -0.344,1.034 -4.826,9.135 -4.481,8.101 -6.722,11.376 l -62.223,91.697 -9.308,12.755 -2.757,3.448 h 85.836 z"
     style="fill:#000000;stroke:none"
     id="path4210" /></g>
 <g
   aria-label="0"
   style=""
   id="text342"><path
     d="m 853.53271,10221.484 q 0,60.844 -21.54541,92.904 -21.37304,32.059 -63.25732,32.059 -41.88428,0 -62.9126,-31.887 -21.02832,-31.887 -21.02832,-93.076 0,-62.568 20.33887,-93.766 20.51123,-31.197 64.63623,-31.197 42.91846,0 63.25732,31.542 20.51123,31.542 20.51123,93.421 z m -31.54248,0 q 0,-52.571 -12.23779,-76.185 -12.06543,-23.613 -39.98828,-23.613 -28.6123,0 -41.19482,23.269 -12.41016,23.269 -12.41016,76.529 0,51.709 12.58252,75.667 12.75488,23.959 40.33301,23.959 27.40576,0 40.16064,-24.476 12.75488,-24.475 12.75488,-75.15 z"
     style="fill:#000000;stroke:none"
     id="path4213" /></g>
 <g
   aria-label="20"
   style=""
   id="text350"><path
     d="m 503.75342,8695 v -21.8901 q 8.79053,-20.1665 21.37304,-35.5069 12.75489,-15.5127 26.71631,-27.9228 13.96143,-12.5825 27.57813,-23.2691 13.78906,-10.6865 24.82031,-21.373 11.03125,-10.6865 17.75342,-22.4072 6.89453,-11.7207 6.89453,-26.544 0,-19.9941 -11.7207,-31.0254 -11.72071,-11.0312 -32.57666,-11.0312 -19.82178,0 -32.74903,10.8589 -12.75488,10.6865 -14.9956,30.1635 l -31.71485,-2.9301 q 3.44727,-29.1294 24.64795,-46.3658 21.37305,-17.2363 54.81153,-17.2363 36.71338,0 56.36279,17.4087 19.82178,17.2363 19.82178,49.1235 0,14.1338 -6.54981,28.0952 -6.37744,13.9615 -19.13232,27.9229 -12.75488,13.9614 -48.77881,43.2632 -19.82178,16.2021 -31.54248,29.3017 -11.7207,12.9273 -16.8916,24.9927 H 664.56836 V 8695 Z"
     style="fill:#000000;stroke:none"
     id="path4216" /><path
     d="m 865.02686,8573.4839 q 0,60.8442 -21.54541,92.9038 -21.37305,32.0596 -63.25733,32.0596 -41.88428,0 -62.9126,-31.8872 -21.02832,-31.8872 -21.02832,-93.0762 0,-62.5679 20.33887,-93.7656 20.51123,-31.1978 64.63623,-31.1978 42.91846,0 63.25732,31.5425 20.51124,31.5425 20.51124,93.4209 z m -31.54249,0 q 0,-52.5708 -12.23779,-76.1846 -12.06543,-23.6138 -39.98828,-23.6138 -28.6123,0 -41.19482,23.2691 -12.41016,23.269 -12.41016,76.5293 0,51.709 12.58252,75.6675 12.75488,23.9585 40.33301,23.9585 27.40576,0 40.16064,-24.4756 12.75488,-24.4756 12.75488,-75.1504 z"
     style="fill:#000000;stroke:none"
     id="path4218" /></g>
 <g
   aria-label="40"
   style=""
   id="text358"><path
     d="M 637.85205,6993.0161 V 7048 h -29.30176 v -54.9839 H 494.10107 v -24.1308 l 111.17432,-163.7452 h 32.57666 v 163.4004 h 34.12793 v 24.4756 z m -29.30176,-152.8862 q -0.34472,1.0342 -4.82617,9.1352 -4.48144,8.1011 -6.72217,11.376 l -62.22314,91.6973 -9.30762,12.7549 -2.75781,3.4472 h 85.83691 z"
     style="fill:#000000;stroke:none"
     id="path4156" /><path
     d="m 865.02686,6926.4839 q 0,60.8442 -21.54541,92.9038 -21.37305,32.0596 -63.25733,32.0596 -41.88428,0 -62.9126,-31.8872 -21.02832,-31.8872 -21.02832,-93.0762 0,-62.5679 20.33887,-93.7656 20.51123,-31.1978 64.63623,-31.1978 42.91846,0 63.25732,31.5425 20.51124,31.5425 20.51124,93.4209 z m -31.54249,0 q 0,-52.5708 -12.23779,-76.1846 -12.06543,-23.6138 -39.98828,-23.6138 -28.6123,0 -41.19482,23.2691 -12.41016,23.269 -12.41016,76.5293 0,51.709 12.58252,75.6675 12.75488,23.9585 40.33301,23.9585 27.40576,0 40.16064,-24.4756 12.75488,-24.4756 12.75488,-75.1504 z"
     style="fill:#000000;stroke:none"
     id="path4158" /></g>
 <g
   aria-label="60"
   style=""
   id="text366"><path
     d="m 666.80908,5321.5405 q 0,38.437 -20.85596,60.6719 -20.85595,22.2349 -57.56933,22.2349 -41.02246,0 -62.74024,-30.5083 -21.71777,-30.5083 -21.71777,-88.7671 0,-63.085 22.57959,-96.8682 22.57959,-33.7832 64.2915,-33.7832 54.98389,0 69.29004,49.4683 l -29.64648,5.3432 q -9.13525,-29.6465 -39.98828,-29.6465 -26.54395,0 -41.19483,24.8204 -14.47851,24.6479 -14.47851,71.5307 8.4458,-15.685 23.78613,-23.7861 15.34033,-8.2734 35.16211,-8.2734 33.61084,0 53.26025,21.0283 19.82178,21.0283 19.82178,56.5351 z m -31.54248,1.3789 q 0,-26.3715 -12.92724,-40.6777 -12.92725,-14.3062 -36.02393,-14.3062 -21.71777,0 -35.16211,12.7549 -13.27197,12.5825 -13.27197,34.8174 0,28.0952 13.78906,46.021 13.96143,17.9258 35.6792,17.9258 22.40723,0 35.16211,-14.9956 12.75488,-15.168 12.75488,-41.5396 z"
     style="fill:#000000;stroke:none"
     id="path4151" /><path
     d="m 865.02686,5279.4839 q 0,60.8442 -21.54541,92.9038 -21.37305,32.0596 -63.25733,32.0596 -41.88428,0 -62.9126,-31.8872 -21.02832,-31.8872 -21.02832,-93.0762 0,-62.5679 20.33887,-93.7656 20.51123,-31.1978 64.63623,-31.1978 42.91846,0 63.25732,31.5425 20.51124,31.5425 20.51124,93.4209 z m -31.54249,0 q 0,-52.5708 -12.23779,-76.1846 -12.06543,-23.6138 -39.98828,-23.6138 -28.6123,0 -41.19482,23.2691 -12.41016,23.269 -12.41016,76.5293 0,51.709 12.58252,75.6675 12.75488,23.9585 40.33301,23.9585 27.40576,0 40.16064,-24.4756 12.75488,-24.4756 12.75488,-75.1504 z"
     style="fill:#000000;stroke:none"
     id="path4153" /></g>
 <g
   aria-label="80"
   style=""
   id="text374"><path
     d="m 666.98145,3685.2612 q 0,33.6109 -21.37305,52.3985 -21.37305,18.7876 -61.36133,18.7876 -38.9541,0 -61.0166,-18.4429 -21.89014,-18.4429 -21.89014,-52.3984 0,-23.7862 13.6167,-39.9883 13.6167,-16.2022 34.81738,-19.6494 v -0.6895 q -19.82177,-4.6538 -31.37011,-20.1665 -11.37598,-15.5127 -11.37598,-36.3686 0,-27.7505 20.68359,-44.9869 20.85596,-17.2363 55.84571,-17.2363 35.85156,0 56.53515,16.8916 20.85596,16.8916 20.85596,45.6763 0,20.8559 -11.54834,36.3686 -11.54834,15.5127 -31.54248,19.4771 v 0.6894 q 23.26904,3.792 36.19629,19.8218 12.92725,15.8574 12.92725,39.8159 z M 628.7168,3570.812 q 0,-41.1948 -45.15918,-41.1948 -21.89014,0 -33.43848,10.3418 -11.37598,10.3418 -11.37598,30.853 0,20.856 11.72071,31.8872 11.89306,10.8589 33.43847,10.8589 21.89014,0 33.26612,-9.9971 11.54834,-10.1694 11.54834,-32.749 z m 6.03271,111.5191 q 0,-22.5796 -13.44433,-33.9556 -13.44434,-11.5484 -37.74756,-11.5484 -23.61377,0 -36.88575,12.4102 -13.27197,12.2378 -13.27197,33.7832 0,50.1577 51.1919,50.1577 25.3374,0 37.74756,-12.0654 12.41015,-12.2378 12.41015,-38.7817 z"
     style="fill:#000000;stroke:none"
     id="path4146" /><path
     d="m 865.02686,3631.4839 q 0,60.8442 -21.54541,92.9038 -21.37305,32.0596 -63.25733,32.0596 -41.88428,0 -62.9126,-31.8872 -21.02832,-31.8872 -21.02832,-93.0762 0,-62.5679 20.33887,-93.7656 20.51123,-31.1978 64.63623,-31.1978 42.91846,0 63.25732,31.5425 20.51124,31.5425 20.51124,93.4209 z m -31.54249,0 q 0,-52.5708 -12.23779,-76.1846 -12.06543,-23.6138 -39.98828,-23.6138 -28.6123,0 -41.19482,23.2691 -12.41016,23.269 -12.41016,76.5293 0,51.709 12.58252,75.6675 12.75488,23.9585 40.33301,23.9585 27.40576,0 40.16064,-24.4756 12.75488,-24.4756 12.75488,-75.1504 z"
     style="fill:#000000;stroke:none"
     id="path4148" /></g>
 <g
   aria-label="100"
   style=""
   id="text382"><path
     d="m 326.88867,2106 v -26.3716 h 61.87842 v -186.8418 l -54.81152,39.1265 v -29.3018 l 57.39697,-39.4712 h 28.6123 v 216.4883 h 59.12061 V 2106 Z"
     style="fill:#000000;stroke:none"
     id="path4139" /><path
     d="m 679.02686,1984.4839 q 0,60.8442 -21.54541,92.9038 -21.37305,32.0596 -63.25733,32.0596 -41.88428,0 -62.9126,-31.8872 -21.02832,-31.8872 -21.02832,-93.0762 0,-62.5679 20.33887,-93.7656 20.51123,-31.1978 64.63623,-31.1978 42.91846,0 63.25732,31.5425 20.51124,31.5425 20.51124,93.4209 z m -31.54249,0 q 0,-52.5708 -12.23779,-76.1846 -12.06543,-23.6138 -39.98828,-23.6138 -28.6123,0 -41.19482,23.2691 -12.41016,23.269 -12.41016,76.5293 0,51.709 12.58252,75.6675 12.75488,23.9585 40.33301,23.9585 27.40576,0 40.16064,-24.4756 12.75488,-24.4756 12.75488,-75.1504 z"
     style="fill:#000000;stroke:none"
     id="path4141" /><path
     d="m 875.521,1984.4839 q 0,60.8442 -21.54541,92.9038 -21.37305,32.0596 -63.25733,32.0596 -41.88428,0 -62.9126,-31.8872 -21.02832,-31.8872 -21.02832,-93.0762 0,-62.5679 20.33887,-93.7656 20.51123,-31.1978 64.63623,-31.1978 42.91846,0 63.25733,31.5425 20.51123,31.5425 20.51123,93.4209 z m -31.54248,0 q 0,-52.5708 -12.2378,-76.1846 -12.06543,-23.6138 -39.98828,-23.6138 -28.6123,0 -41.19482,23.2691 -12.41016,23.269 -12.41016,76.5293 0,51.709 12.58252,75.6675 12.75488,23.9585 40.33301,23.9585 27.40576,0 40.16064,-24.4756 12.75489,-24.4756 12.75489,-75.1504 z"
     style="fill:#000000;stroke:none"
     id="path4143" /></g>
 <g
   aria-label="120"
   style=""
   id="text390"><path
     d="m 326.88867,459 v -26.37158 h 61.87842 v -186.8418 l -54.81152,39.12647 v -29.30176 l 57.39697,-39.47119 h 28.6123 v 216.48828 h 59.12061 V 459 Z"
     style="fill:#000000;stroke:none"
     id="path4132" /><path
     d="m 514.24756,459 v -21.89014 q 8.79053,-20.1665 21.37305,-35.50683 12.75488,-15.5127 26.7163,-27.92285 13.96143,-12.58252 27.57813,-23.26905 13.78906,-10.68652 24.82031,-21.37304 11.03125,-10.68653 17.75342,-22.40723 6.89453,-11.7207 6.89453,-26.54395 0,-19.99414 -11.7207,-31.02539 -11.72071,-11.03125 -32.57666,-11.03125 -19.82178,0 -32.74903,10.85889 -12.75488,10.68652 -14.9956,30.16357 l -31.71485,-2.93017 q 3.44727,-29.1294 24.64795,-46.36572 21.37305,-17.23633 54.81153,-17.23633 36.71338,0 56.36279,17.40869 19.82178,17.23633 19.82178,49.12353 0,14.13379 -6.54981,28.09522 -6.37744,13.96142 -19.13232,27.92285 -12.75488,13.96143 -48.77881,43.26318 -19.82178,16.20215 -31.54248,29.30176 -11.7207,12.92725 -16.8916,24.99268 H 675.0625 V 459 Z"
     style="fill:#000000;stroke:none"
     id="path4134" /><path
     d="m 875.521,337.48389 q 0,60.84423 -21.54541,92.90381 -21.37305,32.05957 -63.25733,32.05957 -41.88428,0 -62.9126,-31.88721 -21.02832,-31.88721 -21.02832,-93.07617 0,-62.56787 20.33887,-93.76563 20.51123,-31.19775 64.63623,-31.19775 42.91846,0 63.25733,31.54248 20.51123,31.54248 20.51123,93.4209 z m -31.54248,0 q 0,-52.5708 -12.2378,-76.18457 -12.06543,-23.61377 -39.98828,-23.61377 -28.6123,0 -41.19482,23.26904 -12.41016,23.26904 -12.41016,76.5293 0,51.70898 12.58252,75.66748 12.75488,23.95849 40.33301,23.95849 27.40576,0 40.16064,-24.47558 12.75489,-24.47559 12.75489,-75.15039 z"
     style="fill:#000000;stroke:none"
     id="path4136" /></g>
 <path
   fill="none"
   stroke="rgb(0,69,134)"
   stroke-width="80"
   stroke-linejoin="round"
   d="M 21266,5317 L 22066,5317"
   id="path392" />
 <path
   fill="rgb(0,69,134)"
   stroke="none"
   d="M 21560,5212 L 21560,5423 21771,5423 21771,5212 21560,5212 Z"
   id="path394" />
 <path
   fill="none"
   stroke="rgb(0,69,134)"
   stroke-linejoin="round"
   d="M 21560,5212 L 21560,5423 21771,5423 21771,5212 21560,5212 Z"
   id="path396" />
 <path
   fill="none"
   stroke="rgb(255,66,14)"
   stroke-width="80"
   stroke-linejoin="round"
   d="M 21266,5735 L 22066,5735"
   id="path398" />
 <path
   fill="rgb(255,66,14)"
   stroke="none"
   d="M 21560,5735 L 21666,5841 21771,5735 21666,5630 21560,5735 Z"
   id="path400" />
 <path
   fill="none"
   stroke="rgb(255,66,14)"
   stroke-linejoin="round"
   d="M 21560,5735 L 21666,5841 21771,5735 21666,5630 21560,5735 Z"
   id="path402" />
 <g
   aria-label="Erwartung"
   style=""
   id="text410"><path
     d="m 22194.957,5396 v -242.8599 h 184.256 v 26.8887 h -151.335 v 77.9082 h 140.994 v 26.544 h -140.994 v 84.6303 h 158.402 V 5396 Z"
     style="fill:#000000;stroke:none"
     id="path4221" /><path
     d="m 22426.269,5396 v -143.0615 q 0,-19.6494 -1.035,-43.4356 h 29.302 q 1.379,31.7149 1.379,38.0923 h 0.689 q 7.412,-23.9585 17.064,-32.749 9.653,-8.7905 27.234,-8.7905 6.205,0 12.582,1.7236 v 28.4399 q -6.205,-1.7236 -16.547,-1.7236 -19.304,0 -29.474,16.7192 -10.169,16.5469 -10.169,47.5723 V 5396 Z"
     style="fill:#000000;stroke:none"
     id="path4223" /><path
     d="m 22722.044,5396 h -36.024 l -32.577,-131.8579 -6.205,-29.1294 q -1.551,7.7563 -4.826,22.4072 -3.275,14.4785 -35.162,138.5801 h -35.852 l -52.226,-186.4971 h 30.681 l 31.543,126.687 q 1.206,4.1368 7.411,34.128 l 2.93,-12.7549 38.954,-148.0601 h 33.267 l 32.576,128.0659 7.929,32.7491 5.343,-23.9585 35.335,-136.8565 h 30.336 z"
     style="fill:#000000;stroke:none"
     id="path4225" /><path
     d="m 22846.146,5399.4473 q -28.096,0 -42.229,-14.8233 -14.134,-14.8232 -14.134,-40.6777 0,-28.957 18.96,-44.4697 19.132,-15.5127 61.533,-16.5469 l 41.885,-0.6895 v -10.1694 q 0,-22.752 -9.653,-32.5767 -9.652,-9.8247 -30.336,-9.8247 -20.856,0 -30.336,7.0669 -9.48,7.0669 -11.376,22.5796 l -32.404,-2.9302 q 7.929,-50.33 74.806,-50.33 35.162,0 52.915,16.2021 17.754,16.0298 17.754,46.5381 v 80.3213 q 0,13.789 3.619,20.8559 3.62,6.8946 13.789,6.8946 4.482,0 10.17,-1.2066 v 19.3047 q -11.721,2.7578 -23.959,2.7578 -17.236,0 -25.165,-8.9629 -7.756,-9.1352 -8.79,-28.4399 h -1.034 q -11.893,21.373 -27.751,30.3359 -15.685,8.7906 -38.264,8.7906 z m 7.066,-23.2691 q 17.064,0 30.336,-7.7563 13.272,-7.7564 20.856,-21.2007 7.757,-13.6167 7.757,-27.9229 v -15.3403 l -33.956,0.6895 q -21.89,0.3447 -33.266,4.4814 -11.204,4.1367 -17.236,12.7549 -6.033,8.6182 -6.033,22.5796 0,15.1679 8.101,23.4414 8.273,8.2734 23.441,8.2734 z"
     style="fill:#000000;stroke:none"
     id="path4227" /><path
     d="m 22995.757,5396 v -143.0615 q 0,-19.6494 -1.034,-43.4356 h 29.301 q 1.379,31.7149 1.379,38.0923 h 0.69 q 7.411,-23.9585 17.064,-32.749 9.652,-8.7905 27.233,-8.7905 6.205,0 12.583,1.7236 v 28.4399 q -6.205,-1.7236 -16.547,-1.7236 -19.305,0 -29.474,16.7192 -10.17,16.5469 -10.17,47.5723 V 5396 Z"
     style="fill:#000000;stroke:none"
     id="path4229" /><path
     d="m 23184.667,5394.6211 q -15.34,4.1367 -31.37,4.1367 -37.231,0 -37.231,-42.229 v -124.4463 h -21.545 v -22.5796 h 22.752 l 9.135,-41.7119 h 20.684 v 41.7119 h 34.472 v 22.5796 h -34.472 v 117.7241 q 0,13.4444 4.309,18.96 4.481,5.3433 15.34,5.3433 6.205,0 17.926,-2.4131 z"
     style="fill:#000000;stroke:none"
     id="path4231" /><path
     d="m 23241.202,5209.5029 v 118.2412 q 0,18.4429 3.62,28.6123 3.619,10.1695 11.548,14.6509 7.929,4.4815 23.269,4.4815 22.407,0 35.335,-15.3404 12.927,-15.3403 12.927,-42.5737 v -108.0718 h 31.025 v 146.6812 q 0,32.5766 1.034,39.8159 h -29.301 q -0.173,-0.8618 -0.345,-4.6538 -0.172,-3.792 -0.517,-8.6182 -0.172,-4.9985 -0.517,-18.6152 h -0.517 q -10.687,19.3047 -24.821,27.4058 -13.961,7.9287 -34.817,7.9287 -30.681,0 -44.987,-15.168 -14.134,-15.3403 -14.134,-50.5024 v -124.274 z"
     style="fill:#000000;stroke:none"
     id="path4233" /><path
     d="m 23525.774,5396 v -118.2412 q 0,-18.4429 -3.62,-28.6123 -3.619,-10.1694 -11.548,-14.6509 -7.929,-4.4814 -23.269,-4.4814 -22.407,0 -35.335,15.3403 -12.927,15.3403 -12.927,42.5737 V 5396 h -31.025 v -146.6812 q 0,-32.5766 -1.034,-39.8159 h 29.301 q 0.173,0.8618 0.345,4.6538 0.172,3.792 0.345,8.7906 0.345,4.8261 0.689,18.4428 h 0.517 q 10.687,-19.3047 24.648,-27.2334 14.134,-8.101 34.99,-8.101 30.681,0 44.815,15.3403 14.306,15.168 14.306,50.3301 V 5396 Z"
     style="fill:#000000;stroke:none"
     id="path4235" /><path
     d="m 23674.523,5469.2544 q -30.508,0 -48.606,-12.0654 -18.098,-11.8931 -23.269,-33.9556 l 31.198,-4.4814 q 3.102,12.9272 13.616,19.8217 10.687,7.0669 27.923,7.0669 46.366,0 46.366,-54.2944 v -29.9912 h -0.345 q -8.79,17.9258 -24.131,27.061 -15.34,8.9629 -35.851,8.9629 -34.3,0 -50.503,-22.7519 -16.029,-22.752 -16.029,-71.5308 0,-49.4683 17.236,-72.9097 17.409,-23.6137 52.743,-23.6137 19.822,0 34.3,9.1352 14.651,8.9629 22.58,25.6821 h 0.345 q 0,-5.1709 0.689,-17.9257 0.69,-12.7549 1.379,-13.9615 h 29.474 q -1.034,9.3076 -1.034,38.6094 v 142.5444 q 0,78.5977 -78.081,78.5977 z m 47.228,-166.5029 q 0,-22.752 -6.205,-39.1265 -6.205,-16.5469 -17.581,-25.165 -11.204,-8.7906 -25.51,-8.7906 -23.786,0 -34.645,17.2364 -10.859,17.2363 -10.859,55.8457 0,38.2646 10.17,54.9839 10.169,16.7192 34.817,16.7192 14.651,0 26.027,-8.6182 11.376,-8.6181 17.581,-24.6479 6.205,-16.2022 6.205,-38.437 z"
     style="fill:#000000;stroke:none"
     id="path4237" /></g>
 <g
   aria-label="IST bei 500"
   style=""
   id="text418"><path
     d="m 22198.577,5814 v -242.8599 h 32.921 V 5814 Z"
     style="fill:#000000;stroke:none"
     id="path4240" /><path
     d="m 22483.148,5746.9507 q 0,33.6108 -26.371,52.0537 -26.199,18.4429 -73.944,18.4429 -88.767,0 -102.901,-61.7061 l 31.887,-6.3774 q 5.516,21.8901 23.442,32.2319 17.926,10.1694 48.779,10.1694 31.887,0 49.123,-10.8589 17.409,-11.0312 17.409,-32.2319 0,-11.8931 -5.516,-19.3047 -5.343,-7.4116 -15.168,-12.2378 -9.825,-4.8261 -23.441,-8.101 -13.617,-3.2749 -30.164,-7.0669 -28.784,-6.3775 -43.78,-12.7549 -14.823,-6.3775 -23.441,-14.1338 -8.619,-7.9287 -13.272,-18.4429 -4.482,-10.5141 -4.482,-24.1308 0,-31.1978 23.786,-48.0894 23.959,-16.8916 68.428,-16.8916 41.368,0 63.258,12.7549 21.89,12.5825 30.68,43.0908 l -32.404,5.688 q -5.343,-19.3047 -20.339,-27.9229 -14.995,-8.7905 -41.539,-8.7905 -29.13,0 -44.47,9.6524 -15.34,9.6523 -15.34,28.7846 0,11.2036 5.86,18.6153 6.033,7.2392 17.236,12.4101 11.204,4.9986 44.642,12.4102 11.204,2.5854 22.235,5.3432 11.204,2.5855 21.373,6.3775 10.17,3.6196 18.96,8.6181 8.963,4.9986 15.513,12.2378 6.55,7.2393 10.169,17.064 3.792,9.8247 3.792,23.0967 z"
     style="fill:#000000;stroke:none"
     id="path4242" /><path
     d="M 22623.797,5598.0288 V 5814 h -32.749 v -215.9712 h -83.424 v -26.8887 h 199.597 v 26.8887 z"
     style="fill:#000000;stroke:none"
     id="path4244" /><path
     d="m 22988.69,5719.8896 q 0,97.5577 -68.601,97.5577 -21.2,0 -35.334,-7.584 -13.962,-7.7564 -22.752,-24.8203 h -0.345 q 0,5.3432 -0.689,16.3745 -0.69,10.8589 -1.034,12.5825 h -29.992 q 1.035,-9.3076 1.035,-38.437 v -217.3501 h 31.025 v 72.9097 q 0,11.2036 -0.69,26.3715 h 0.69 q 8.618,-17.9257 22.752,-25.6821 14.306,-7.7563 35.334,-7.7563 35.335,0 51.882,23.7861 16.719,23.7861 16.719,72.0478 z m -32.577,1.0342 q 0,-39.1264 -10.342,-56.018 -10.341,-16.8916 -33.61,-16.8916 -26.2,0 -38.265,17.9257 -11.893,17.9258 -11.893,56.8799 0,36.7134 11.721,54.2945 11.72,17.4086 38.092,17.4086 23.441,0 33.783,-17.2363 10.514,-17.4087 10.514,-56.3628 z"
     style="fill:#000000;stroke:none"
     id="path4246" /><path
     d="m 23051.258,5727.3013 q 0,32.0595 13.272,49.4682 13.272,17.4087 38.782,17.4087 20.166,0 32.231,-8.1011 12.238,-8.101 16.547,-20.5112 l 27.234,7.7564 q -16.72,44.125 -76.012,44.125 -41.368,0 -63.085,-24.648 -21.546,-24.6479 -21.546,-73.2544 0,-46.1933 21.546,-70.8413 21.717,-24.6479 61.878,-24.6479 82.217,0 82.217,99.1089 v 4.1367 z m 101.005,-23.7862 q -2.586,-29.4741 -14.996,-42.9184 -12.41,-13.6167 -35.679,-13.6167 -22.58,0 -35.852,15.1679 -13.099,14.9957 -14.133,41.3672 z"
     style="fill:#000000;stroke:none"
     id="path4248" /><path
     d="m 23223.793,5587.8594 v -29.6465 h 31.026 v 29.6465 z m 0,226.1406 v -186.4971 h 31.026 V 5814 Z"
     style="fill:#000000;stroke:none"
     id="path4250" /><path
     d="m 23558.178,5734.8853 q 0,38.437 -22.924,60.4995 -22.752,22.0625 -63.257,22.0625 -33.956,0 -54.812,-14.8233 -20.856,-14.8232 -26.372,-42.9184 l 31.371,-3.6197 q 9.824,36.024 50.502,36.024 24.993,0 39.126,-14.9956 14.134,-15.168 14.134,-41.5396 0,-22.9243 -14.306,-37.0581 -14.134,-14.1338 -38.265,-14.1338 -12.582,0 -23.441,3.9644 -10.859,3.9643 -21.718,13.4443 h -30.336 l 8.101,-130.6514 h 138.063 v 26.3716 h -109.795 l -4.654,77.0464 q 20.167,-15.5127 50.158,-15.5127 35.851,0 57.052,21.0283 21.373,21.0284 21.373,54.8116 z"
     style="fill:#000000;stroke:none"
     id="path4252" /><path
     d="m 23755.707,5692.4839 q 0,60.8442 -21.546,92.9038 -21.373,32.0596 -63.257,32.0596 -41.884,0 -62.913,-31.8872 -21.028,-31.8872 -21.028,-93.0762 0,-62.5679 20.339,-93.7656 20.511,-31.1978 64.636,-31.1978 42.918,0 63.257,31.5425 20.512,31.5425 20.512,93.4209 z m -31.543,0 q 0,-52.5708 -12.238,-76.1846 -12.065,-23.6138 -39.988,-23.6138 -28.612,0 -41.195,23.2691 -12.41,23.269 -12.41,76.5293 0,51.709 12.583,75.6675 12.754,23.9585 40.333,23.9585 27.405,0 40.16,-24.4756 12.755,-24.4756 12.755,-75.1504 z"
     style="fill:#000000;stroke:none"
     id="path4254" /><path
     d="m 23952.201,5692.4839 q 0,60.8442 -21.546,92.9038 -21.373,32.0596 -63.257,32.0596 -41.884,0 -62.913,-31.8872 -21.028,-31.8872 -21.028,-93.0762 0,-62.5679 20.339,-93.7656 20.511,-31.1978 64.636,-31.1978 42.919,0 63.257,31.5425 20.512,31.5425 20.512,93.4209 z m -31.543,0 q 0,-52.5708 -12.238,-76.1846 -12.065,-23.6138 -39.988,-23.6138 -28.612,0 -41.195,23.2691 -12.41,23.269 -12.41,76.5293 0,51.709 12.583,75.6675 12.755,23.9585 40.333,23.9585 27.405,0 40.16,-24.4756 12.755,-24.4756 12.755,-75.1504 z"
     style="fill:#000000;stroke:none"
     id="path4256" /></g>
</svg>